<svg width="183" height="207" viewBox="0 0 183 207" fill="none" xmlns="http://www.w3.org/2000/svg">
<path d="M91.2856 197.281L90.586 196.529L87.149 192.831C84.6097 190.099 81.9665 187.255 81.5422 186.796L81.3105 186.546L80.9792 186.464C75.8537 185.203 72.4011 184.516 68.8627 183.813L68.6829 183.777C65.0906 183.062 61.3739 182.319 55.6638 180.923C33.2719 175.17 9.33255 154.823 9.33255 123.865C9.33255 113.109 11.7888 106.656 14.2887 100.364C14.3569 100.192 14.4251 100.021 14.4933 99.8492C16.9501 93.6728 19.4056 87.4996 19.4056 77.662C19.4056 70.3689 17.8524 63.1529 14.8246 56.2757L8.9059 42.8318L22.8433 38.7139C22.8436 38.7138 22.844 38.7137 22.8443 38.7136C27.9023 37.2286 31.5291 33.3089 33.7096 27.3665L33.71 27.3656L39.8717 10.5263L53.5801 21.8938L53.5814 21.8949C57.7028 25.3016 61.975 27.1001 66.2648 27.1001C71.8748 27.1001 78.2053 24.391 82.428 20.1931C82.4284 20.1927 82.4288 20.1923 82.4292 20.1919L91.2634 11.4631L100.098 20.1919C100.098 20.1924 100.099 20.1929 100.099 20.1934C104.322 24.3911 110.652 27.1001 116.262 27.1001C120.576 27.1001 124.825 25.301 128.945 21.8949L128.946 21.8943L142.678 10.5251L148.84 27.3656L148.84 27.3665C151.021 33.3086 154.647 37.2281 159.705 38.7134L91.2856 197.281ZM91.2856 197.281L91.9861 196.526C92.9115 195.529 94.1542 194.19 95.4235 192.823C97.9579 190.093 100.609 187.24 101.04 186.786L101.27 186.544L101.594 186.464C106.719 185.203 110.172 184.516 113.71 183.812L113.89 183.777C117.482 183.062 121.199 182.319 126.908 180.923M91.2856 197.281L126.908 180.923M164.304 77.662L163.167 77.6656C163.167 77.6644 163.167 77.6632 163.167 77.662C163.144 70.3692 164.674 63.1755 167.726 56.2741L173.644 42.8318L159.707 38.7139L127.186 182.026M164.304 77.662C164.304 87.278 166.691 93.2758 169.141 99.4325C171.724 105.924 174.377 112.592 174.377 123.865C174.377 155.487 149.908 176.185 127.186 182.026M164.304 77.662C164.281 70.5326 165.776 63.4953 168.766 56.734L164.304 77.662ZM127.186 182.026L126.916 180.921C126.913 180.922 126.911 180.923 126.908 180.923M127.186 182.026L126.903 180.925C126.905 180.924 126.906 180.924 126.908 180.923M153.574 25.6165L146.837 7.29209L146.836 7.28726L145.503 3.61244L144.954 2.09752L143.711 3.12256L140.698 5.60632L140.696 5.60784L125.726 18.0031C125.725 18.0033 125.725 18.0035 125.725 18.0037C122.408 20.7456 119.206 22.043 116.262 22.043C112.034 22.043 106.934 19.8576 103.656 16.6009L103.652 16.5969L93.9945 7.10071L93.9926 7.09879L92.0627 5.1919L91.2634 4.40213L90.4641 5.1919L88.5333 7.09975L88.5323 7.10071L78.8742 16.6208L78.8711 16.6239C75.5938 19.8795 70.4711 22.066 66.2418 22.066C63.2759 22.066 60.0969 20.7696 56.7543 18.0252C56.7537 18.0247 56.7531 18.0242 56.7525 18.0237L41.8129 5.63535L41.8081 5.63139L38.8232 3.12859L37.5774 2.0841L37.0234 3.61245L35.6907 7.28887L35.6895 7.2921L28.9756 25.6404C28.9755 25.6407 28.9754 25.6409 28.9753 25.6411C27.2855 30.2493 24.6949 32.9168 21.418 33.8877L6.24571 38.3704L6.2403 38.372L3.23299 39.2444L1.98601 39.6061L2.50892 40.7945L3.7738 43.6692L3.7739 43.6695L10.2133 58.2961L10.2135 58.2966C12.9808 64.5736 14.3715 71.0871 14.3715 77.662C14.3715 86.518 12.189 92.0295 9.8067 98.008L9.80626 98.0091L9.78796 98.0552C7.1112 104.793 4.29844 111.874 4.29844 123.865C4.29844 157.618 30.3274 179.61 54.4141 185.795L54.5532 185.831H54.6052C60.4394 187.264 64.2237 188.021 67.8845 188.73C71.1551 189.38 74.2608 190.005 78.6605 191.055C80.0456 192.542 82.8508 195.561 85.1082 197.991C86.8611 199.878 88.2838 201.41 88.4546 201.591C88.4556 201.593 88.4566 201.594 88.4575 201.595L90.4752 203.773L91.3094 204.673L92.1437 203.773L94.1675 201.588L94.1673 201.588C94.6865 201.036 101.541 193.647 103.94 191.053C108.074 190.047 111.063 189.454 114.13 188.845C114.324 188.807 114.518 188.769 114.713 188.73L114.714 188.73L114.714 188.73C118.371 187.998 122.154 187.242 127.989 185.831H128.043L128.182 185.795C152.268 179.61 178.297 157.618 178.297 123.865C178.297 111.851 175.474 104.743 172.792 97.9932L172.79 97.9861L172.789 97.985C170.407 92.0056 168.224 86.5176 168.224 77.662L168.224 77.6581C168.202 71.0621 169.592 64.551 172.358 58.3224L172.36 58.3171L178.776 43.6692L178.777 43.6675L180.041 40.7945L180.56 39.6145L179.325 39.2466L176.312 38.3497L176.31 38.349L161.131 33.8645L161.13 33.8642C157.834 32.8934 155.265 30.2288 153.574 25.6174L153.574 25.6165Z" fill="white" stroke="white" stroke-width="2.27437"/>
<path d="M168.766 56.7336L175.205 42.107L160.026 37.6224C155.404 36.2655 152 32.6779 149.907 26.9744L143.192 8.62215L128.22 21.018C124.242 24.3067 120.24 25.9625 116.262 25.9625C110.972 25.9625 104.924 23.3867 100.899 19.3851L91.263 9.86404L81.6269 19.3851C77.6023 23.3867 71.5539 25.9625 66.2644 25.9625C62.3087 25.9625 58.2841 24.3067 54.3055 21.018L39.3569 8.62215L32.6416 26.9744C30.5488 32.6779 27.1451 36.2655 22.5225 37.6224L7.34399 42.107L13.7834 56.7336C16.7501 63.4719 18.268 70.5322 18.268 77.6616C18.268 97.4167 8.19491 101.924 8.19491 123.864C8.19491 155.486 32.6416 176.184 55.3864 182.026C66.8623 184.831 70.335 185.015 80.707 187.568C81.5579 188.488 91.286 198.952 91.286 198.952C91.286 198.952 101.014 188.465 101.865 187.568C112.237 185.015 115.71 184.831 127.186 182.026C149.907 176.184 174.377 155.486 174.377 123.864C174.377 101.901 164.304 97.4167 164.304 77.6616C164.281 70.5322 165.776 63.4949 168.766 56.7336ZM167.11 101.073C169.525 107.145 171.87 113.492 171.87 123.887C171.87 152.772 150.367 173.539 126.542 179.657C114.767 182.624 109.293 182.923 100.508 185.383C99.3582 186.579 91.263 195.341 91.263 195.341C91.263 195.341 83.1448 186.579 82.0179 185.383C73.2327 182.923 67.7592 182.624 55.9843 179.657C37.5861 174.919 20.5907 161.466 13.7834 142.285C11.7826 136.628 10.6557 130.465 10.6557 123.887C10.6557 102.315 20.7287 98.2216 20.7287 77.6846C20.7287 69.2674 18.7049 61.8161 16.0372 55.7447L10.7477 43.7168L23.2125 40.0371C28.64 38.4273 32.5956 34.3337 34.9644 27.8483L40.4608 12.7848L52.7187 22.9268C56.7433 26.2615 61.3658 28.4463 66.2644 28.4463C72.8187 28.4463 79.3271 25.1806 83.3747 21.156L91.263 13.3597L99.1512 21.156C103.199 25.1806 109.707 28.4463 116.262 28.4463C121.16 28.4463 125.76 26.2615 129.807 22.9268L142.065 12.7848L147.562 27.8483C149.93 34.3337 153.886 38.4273 159.313 40.0371L171.778 43.7168L166.489 55.7447C163.821 61.8161 161.797 69.2674 161.797 77.6846C161.797 88.3325 164.488 94.5419 167.11 101.073ZM163.982 47.3735C163.982 47.3735 144.733 45.6946 139.535 22.3058C139.535 22.3058 127.99 34.1957 116.308 34.1957C101.221 34.1957 91.309 21.3859 91.309 21.3859C91.309 21.3859 81.3739 34.1957 66.3104 34.1957C54.6045 34.1957 43.0826 22.3058 43.0826 22.3058C37.8621 45.6946 18.6129 47.3735 18.6129 47.3735C18.6129 47.3735 26.4322 61.2181 26.4322 77.6386C26.4322 79.8004 26.3172 81.7782 26.1332 83.641C24.4774 100.015 16.3591 106.593 16.3591 123.887C16.3591 145.091 30.8937 167.376 57.4332 174.091C70.036 177.265 78.7522 178.093 85.1456 180.393C85.9735 181.152 91.286 186.947 91.286 186.947C91.286 186.947 96.6215 181.175 97.4264 180.393C103.843 178.07 112.536 177.265 125.139 174.091C151.678 167.376 166.213 145.114 166.213 123.887C166.213 104.615 156.14 98.6586 156.14 77.6386C156.14 61.2181 163.982 47.3735 163.982 47.3735ZM160.555 123.887C160.555 148.403 141.444 164.018 123.736 168.526C109.707 172.091 100.531 172.504 94.3677 175.471C94.3677 175.471 92.1139 177.518 91.286 178.461C90.4351 177.518 88.2043 175.471 88.2043 175.471C82.0409 172.504 72.8647 172.091 58.8361 168.526C41.1278 164.018 22.0166 148.426 22.0166 123.887C22.0166 106.34 32.0896 99.9004 32.0896 77.6386C32.0896 62.621 26.4092 51.0531 26.4092 51.0531C26.4092 51.0531 39.5179 48.4084 45.6123 31.8269C45.6123 31.8269 54.3055 39.9452 66.3104 39.9452C81.3279 39.9452 91.309 29.3892 91.309 29.3892C91.309 29.3892 101.29 39.9452 116.308 39.9452C128.312 39.9452 136.983 31.8269 136.983 31.8269C143.077 48.4084 156.186 51.0531 156.186 51.0531C156.186 51.0531 150.505 62.621 150.505 77.6386C150.482 99.9004 160.555 106.34 160.555 123.887ZM144.043 77.6386C144.043 68.1175 146.113 59.8843 147.884 54.5718C144.342 52.6169 140.018 49.3973 136.27 44.1768L28.456 125.152C28.9619 141.066 39.2649 152.68 51.0168 158.706L144.848 88.2405C144.342 85.0898 144.043 81.5942 144.043 77.6386ZM76.3834 132.488L68.0352 138.744L59.0431 124.991V145.528L51.1548 151.439V122.392C51.1548 118.299 47.2452 118.184 47.2452 118.184L58.4221 109.789L68.4951 125.221V102.223L76.3834 96.2898V132.488ZM108.212 108.594L100.485 114.389V101.142L91.5849 107.835V121.081L83.4667 127.176V98.1066C83.4667 94.013 79.5571 93.898 79.5571 93.898L91.5849 84.8599V98.2446L100.485 91.5522V78.1675L108.212 72.3721V108.594ZM137.351 86.7227L114.974 103.534V74.4879C114.974 70.3713 111.064 70.2793 111.064 70.2793L123.092 61.2411V88.1945L137.374 77.4776C137.351 77.4776 136.868 80.9272 137.351 86.7227ZM121.482 45.9476L29.6289 114.941C32.2736 104.546 38.529 95.9678 38.529 77.6156C38.529 68.0945 36.4592 59.8613 34.6884 54.5488C38.805 52.295 44.0025 48.2704 48.1421 41.371C52.5807 43.8548 58.8821 46.3615 66.2874 46.3615C77.5103 46.3615 86.2725 41.463 91.286 37.7834C96.2995 41.463 105.062 46.3615 116.285 46.3615C118.078 46.3615 119.803 46.2236 121.482 45.9476ZM146.573 96.2668C149.562 106.685 154.116 113.515 154.116 123.887C154.116 144.7 137.558 158.384 122.149 162.293C111.041 165.122 97.4494 166.571 93.3328 168.917C92.4129 169.607 91.286 170.803 91.286 170.803C91.286 170.803 90.1361 169.584 89.2162 168.917C85.0996 166.571 71.5079 165.122 60.3999 162.293C59.986 162.178 59.549 162.063 59.135 161.949L146.573 96.2668Z" fill="black"/>
<path d="M167.11 101.074C164.488 94.5424 161.798 88.333 161.798 77.685C161.798 69.2678 163.821 61.8166 166.489 55.7451L171.779 43.7173L159.314 40.0376C153.886 38.4278 149.931 34.3342 147.562 27.8488L142.065 12.7852L129.808 22.9273C125.76 26.262 121.16 28.4467 116.262 28.4467C109.708 28.4467 103.199 25.1811 99.1516 21.1564L91.2633 13.3602L83.3751 21.1564C79.3274 25.1811 72.8191 28.4467 66.2647 28.4467C61.3662 28.4467 56.7436 26.262 52.719 22.9273L40.4612 12.7852L34.9647 27.8488C32.5959 34.3342 28.6403 38.4278 23.2128 40.0376L10.748 43.7173L16.0375 55.7451C18.7052 61.8166 20.729 69.2678 20.729 77.685C20.729 98.2221 10.656 102.316 10.656 123.888C10.656 130.465 11.7829 136.628 13.7837 142.286C20.5911 161.466 37.5864 174.92 55.9847 179.657C67.7596 182.624 73.233 182.923 82.0182 185.384C83.1451 186.58 91.2633 195.342 91.2633 195.342C91.2633 195.342 99.3585 186.58 100.508 185.384C109.294 182.923 114.767 182.624 126.542 179.657C150.368 173.54 171.871 152.773 171.871 123.888C171.871 113.493 169.525 107.145 167.11 101.074ZM125.139 174.092C112.536 177.266 103.843 178.07 97.4267 180.393C96.6218 181.175 91.2863 186.948 91.2863 186.948C91.2863 186.948 85.9738 181.152 85.1459 180.393C78.7525 178.093 70.0363 177.266 57.4335 174.092C30.8941 167.376 16.3595 145.092 16.3595 123.888C16.3595 106.593 24.4777 100.016 26.1335 83.6415C26.3175 81.7786 26.4325 79.8008 26.4325 77.639C26.4325 61.2186 18.6132 47.3739 18.6132 47.3739C18.6132 47.3739 37.8624 45.6951 43.0829 22.3063C43.0829 22.3063 54.6048 34.1962 66.3107 34.1962C81.3743 34.1962 91.3093 21.3864 91.3093 21.3864C91.3093 21.3864 101.221 34.1962 116.308 34.1962C127.991 34.1962 139.536 22.3063 139.536 22.3063C144.733 45.6951 163.982 47.3739 163.982 47.3739C163.982 47.3739 156.14 61.2186 156.14 77.639C156.14 98.659 166.213 104.615 166.213 123.888C166.213 145.115 151.679 167.376 125.139 174.092ZM68.4955 102.224L76.3837 96.2903V132.489L68.0355 138.744L59.0434 124.992V145.529L51.1551 151.439V122.393C51.1551 118.299 47.2455 118.184 47.2455 118.184L58.4224 109.79L68.4955 125.221V102.224ZM156.186 51.0536C156.186 51.0536 143.077 48.4088 136.983 31.8274C136.983 31.8274 128.313 39.9456 116.308 39.9456C101.29 39.9456 91.3093 29.3897 91.3093 29.3897C91.3093 29.3897 81.3283 39.9456 66.3107 39.9456C54.3058 39.9456 45.6127 31.8274 45.6127 31.8274C39.5182 48.4088 26.4095 51.0536 26.4095 51.0536C26.4095 51.0536 32.09 62.6215 32.09 77.639C32.09 99.9009 22.0169 106.34 22.0169 123.888C22.0169 148.426 41.1281 164.019 58.8364 168.526C72.8651 172.091 82.0412 172.505 88.2046 175.472C88.2046 175.472 90.4354 177.518 91.2863 178.461C92.1142 177.518 94.368 175.472 94.368 175.472C100.531 172.505 109.708 172.091 123.736 168.526C141.445 164.019 160.556 148.403 160.556 123.888C160.556 106.34 150.483 99.9009 150.506 77.639C150.506 62.6215 156.186 51.0536 156.186 51.0536ZM38.5293 77.616C38.5293 68.095 36.4595 59.8617 34.6887 54.5493C38.8053 52.2955 44.0028 48.2709 48.1424 41.3715C52.581 43.8553 58.8824 46.362 66.2877 46.362C77.5106 46.362 86.2728 41.4635 91.2863 37.7839C96.2998 41.4635 105.062 46.362 116.285 46.362C118.079 46.362 119.804 46.224 121.482 45.9481L29.6292 114.941C32.2739 104.546 38.5293 95.9683 38.5293 77.616ZM51.0172 158.706C39.2653 152.681 28.9623 141.067 28.4563 125.152L136.27 44.1772C140.019 49.3977 144.342 52.6174 147.884 54.5722C146.113 59.8847 144.043 68.118 144.043 77.639C144.043 81.5947 144.342 85.0903 144.848 88.241L51.0172 158.706ZM154.116 123.888C154.116 144.701 137.558 158.384 122.149 162.294C111.041 165.123 97.4497 166.572 93.3331 168.917C92.4132 169.607 91.2863 170.803 91.2863 170.803C91.2863 170.803 90.1364 169.584 89.2165 168.917C85.0999 166.572 71.5082 165.123 60.4003 162.294C59.9863 162.179 59.5493 162.064 59.1354 161.949L146.573 96.2673C149.563 106.685 154.116 113.516 154.116 123.888ZM100.485 78.168L108.213 72.3725V108.594L100.485 114.39V101.143L91.5853 107.835V121.082L83.467 127.176V98.1071C83.467 94.0135 79.5574 93.8985 79.5574 93.8985L91.5853 84.8604V98.2451L100.485 91.5527V78.168ZM137.374 77.4781C137.351 77.4781 136.868 80.9277 137.351 86.7232L114.974 103.535V74.4883C114.974 70.3717 111.064 70.2798 111.064 70.2798L123.092 61.2416V88.195L137.374 77.4781Z" fill="white"/>
</svg>
