<svg width="121" height="141" viewBox="0 0 121 141" fill="none" xmlns="http://www.w3.org/2000/svg">
<path d="M83.6382 35.2098H97.6287L83.6382 22.2955V35.2098Z" fill="black"/>
<circle cx="53.5048" cy="66.4193" r="21.5238" fill="white"/>
<path d="M79.8856 17.9907V16.2849H78.1798H4H2.29422V17.9907V137.448V139.154H4H101.933H103.639V137.448V41.7709V40.0651H101.933H81.2103C80.8594 40.0634 80.5229 39.9229 80.2746 39.6735C80.0257 39.4235 79.8856 39.0845 79.8856 38.7308V17.9907ZM43.9597 44.1227C46.5482 43.0488 49.3054 42.4474 52.1007 42.3445H52.9651C57.6174 42.3445 62.1654 43.7257 66.034 46.3135C69.9026 48.9013 72.9181 52.5796 74.6989 56.8836C76.4797 61.1876 76.9456 65.9237 76.0378 70.4929C75.1299 75.0621 72.8891 79.259 69.599 82.5528C66.3088 85.8466 62.1172 88.0895 57.5542 88.9982C52.9912 89.9068 48.2615 89.4405 43.9631 87.658C39.6648 85.8756 35.9906 82.857 33.4054 78.9837C30.8202 75.1104 29.4403 70.5564 29.4403 65.8976L29.4403 65.8965C29.4383 62.802 30.0455 59.7374 31.227 56.878C32.4085 54.0186 34.1412 51.4203 36.326 49.2317C38.5107 47.0432 41.1047 45.3071 43.9597 44.1227ZM85.6789 104.811C85.882 105.013 86.0138 105.273 86.0574 105.553V105.759C86.0574 106.113 85.9169 106.453 85.6674 106.703C85.4179 106.953 85.08 107.093 84.7278 107.093H21.1719C20.8196 107.093 20.4812 106.953 20.2315 106.703C19.9817 106.453 19.841 106.114 19.841 105.759C19.841 105.405 19.9817 105.065 20.2315 104.815C20.4812 104.565 20.8196 104.425 21.1719 104.425L84.7328 104.425L84.7382 104.425C85.0901 104.424 85.4284 104.562 85.6789 104.811ZM85.5924 120.137C85.3564 120.381 85.0371 120.525 84.6996 120.542H21.2051C20.8677 120.525 20.5483 120.381 20.3124 120.137C20.0712 119.887 19.9361 119.554 19.9361 119.206C19.9361 118.858 20.0712 118.524 20.3124 118.275C20.5483 118.031 20.8677 117.886 21.2051 117.87H84.6996C85.0371 117.886 85.3564 118.031 85.5924 118.275C85.8335 118.524 85.9687 118.858 85.9687 119.206C85.9687 119.554 85.8335 119.887 85.5924 120.137Z" fill="black" stroke="white" stroke-width="3.41156"/>
<path d="M19.0669 2.29446H17.3611V4.00024V12.2433V13.9491H19.0669H80.9553C80.9722 13.9528 80.989 13.9571 81.0057 13.962L81.1419 14.0012L81.2828 14.0174C81.3231 14.0221 81.363 14.0301 81.4021 14.0413L81.443 14.0531L81.4844 14.0629C81.6986 14.1133 81.8966 14.2175 82.0599 14.3659L105.762 38.114C105.911 38.28 106.017 38.4814 106.068 38.6997L106.075 38.7274L106.083 38.7549C106.097 38.8087 106.108 38.8636 106.115 38.919L106.13 39.0352L106.16 39.1484C106.167 39.1738 106.173 39.1994 106.178 39.2253V123.457V125.163H107.884H117H118.706V123.457V4.00024V2.29446H117H19.0669Z" fill="black" stroke="white" stroke-width="3.41156"/>
<path d="M45.2637 82.7803C47.5251 84.1414 50.0831 84.9463 52.7233 85.1275V86.6246C52.7077 86.9682 52.7704 87.3108 52.9069 87.6271C53.0434 87.9434 53.25 88.2252 53.5116 88.4516C53.9505 88.8169 54.5051 89.0178 55.0785 89.0193C55.6489 89.015 56.2023 88.8268 56.655 88.4833C56.94 88.2646 57.1685 87.9821 57.3217 87.659C57.4749 87.3358 57.5484 86.9813 57.5362 86.6246V85.0767C60.2791 84.6898 62.3811 83.7192 63.7846 82.184C65.3579 80.4649 66.2295 78.565 66.3737 76.5572C66.4721 75.4409 66.4106 74.3165 66.191 73.2173C65.9722 71.9781 65.5001 70.7963 64.8035 69.7441C64.0008 68.598 62.9623 67.6327 61.7563 66.9117C60.4551 66.1301 59.0275 65.5764 57.5362 65.275V52.4957C57.8638 52.6236 58.1765 52.7863 58.4686 52.981C59.1472 53.4342 59.7568 53.981 60.2791 54.6049C60.7339 55.1516 61.0836 55.7762 61.3109 56.4478C61.5434 57.141 61.695 57.8583 61.7627 58.5856C61.9261 60.0224 62.9739 60.5807 63.98 60.4633C64.9862 60.346 65.7424 59.5974 66.0116 58.1669C65.9347 55.2583 64.983 52.8826 63.179 51.1191C61.6311 49.6189 59.6665 48.6096 57.5362 48.2201V46.2947C57.548 45.974 57.4944 45.6542 57.3785 45.3544C57.2627 45.0546 57.087 44.781 56.8619 44.5499C56.6368 44.3189 56.367 44.1351 56.0686 44.0096C55.7701 43.884 55.4492 43.8193 55.125 43.8193C54.8007 43.8193 54.4798 43.884 54.1813 44.0096C53.8829 44.1351 53.6131 44.3189 53.388 44.5499C53.1629 44.781 52.9872 45.0546 52.8714 45.3544C52.7555 45.6542 52.7019 45.974 52.7137 46.2947V47.9663C51.4118 48.0957 50.1316 48.3877 48.9038 48.8354C47.4422 49.3523 46.1046 50.1634 44.9753 51.2174C43.9177 52.2143 43.0874 53.4233 42.5401 54.7635C41.9977 56.1507 41.7913 57.6444 41.9377 59.1248C42.184 61.7563 43.4466 64.1923 45.4624 65.9252C47.3625 67.4921 49.8683 68.4627 52.7041 68.7799V81.0231C50.5027 80.7979 48.7756 80.2207 47.558 79.3072C46.239 78.3907 45.2892 77.0428 44.876 75.501C44.7767 74.6414 44.139 73.7089 42.7067 73.6677C42.4028 73.6194 42.0916 73.6478 41.8018 73.7504C41.512 73.8531 41.2531 74.0265 41.0492 74.2546C40.8453 74.4828 40.7029 74.7582 40.6352 75.0554C40.5676 75.3526 40.5769 75.6619 40.6623 75.9546C40.8941 77.351 41.4245 78.6824 42.218 79.8595C43.0116 81.0367 44.05 82.0325 45.2637 82.7803ZM47.8272 62.2047C47.367 61.7843 47.006 61.2689 46.7697 60.6949C46.5634 60.1089 46.4268 59.5011 46.3628 58.8838C46.3025 58.0128 46.4314 57.1392 46.741 56.3218C47.0505 55.5044 47.5334 54.7621 48.1572 54.145C49.2178 53.0444 50.7463 52.3498 52.7041 52.0707V64.5709C51.8275 64.4198 50.9758 64.1509 50.1727 63.7715C49.3183 63.3694 48.5307 62.8411 47.8368 62.2047H47.8272ZM61.1186 79.0154C60.6245 79.5652 60.0311 80.0191 59.369 80.3539C58.7902 80.6448 58.1682 80.8429 57.5266 80.9407V69.557C58.9941 69.9979 60.09 70.6259 60.8142 71.4601C61.7755 72.5607 62.2113 74.1783 62.1568 76.4081V76.4398C62.1323 76.8345 62.0458 77.2229 61.9004 77.5912C61.7296 78.1062 61.4681 78.5873 61.1282 79.0122L61.1186 79.0154Z" fill="black"/>
</svg>
