<svg width="1644" height="1468" viewBox="0 0 1644 1468" fill="none" xmlns="http://www.w3.org/2000/svg">
<g opacity="0.5">
<path d="M938.096 390.205L940.222 388.978L941.069 390.443L938.942 391.671C938.814 391.747 938.721 391.87 938.683 392.014C938.644 392.158 938.663 392.311 938.735 392.441L948.253 408.927C948.329 409.055 948.453 409.149 948.597 409.187C948.741 409.226 948.895 409.207 949.025 409.134L951.151 407.907L951.997 409.372L949.871 410.6C949.353 410.898 948.737 410.979 948.159 410.824C947.582 410.669 947.089 410.292 946.789 409.774L937.27 393.286C936.972 392.767 936.892 392.152 937.046 391.575C937.201 390.997 937.579 390.505 938.096 390.205V390.205Z" fill="white"/>
<path d="M961.501 430.702L963.63 429.472L964.476 430.937L962.349 432.164C962.222 432.241 962.129 432.364 962.09 432.508C962.052 432.652 962.071 432.805 962.144 432.936L980.72 465.11C980.796 465.238 980.919 465.33 981.063 465.369C981.207 465.407 981.36 465.389 981.49 465.316L983.616 464.089L984.462 465.554L982.336 466.782C981.817 467.08 981.202 467.161 980.624 467.006C980.047 466.851 979.554 466.474 979.254 465.956L960.678 433.782C960.38 433.264 960.299 432.649 960.454 432.072C960.608 431.494 960.985 431.002 961.501 430.702V430.702Z" fill="white"/>
<path d="M1252.95 355.138L1250.82 356.366L1249.97 354.902L1252.1 353.674C1252.23 353.597 1252.32 353.474 1252.36 353.33C1252.4 353.186 1252.38 353.033 1252.31 352.903L1221.41 299.391C1221.34 299.264 1221.21 299.171 1221.07 299.132C1220.93 299.094 1220.77 299.113 1220.64 299.185L1218.51 300.413L1217.67 298.949L1219.8 297.72C1220.32 297.422 1220.93 297.341 1221.51 297.496C1222.09 297.651 1222.58 298.029 1222.88 298.546L1253.77 352.058C1254.07 352.576 1254.15 353.191 1254 353.769C1253.84 354.346 1253.46 354.839 1252.95 355.138V355.138Z" fill="white"/>
<path d="M987.983 476.569L990.112 475.34L990.958 476.805L988.832 478.033C988.705 478.109 988.612 478.233 988.573 478.376C988.535 478.52 988.554 478.673 988.626 478.803L1007.2 510.977C1007.28 511.105 1007.4 511.198 1007.54 511.236C1007.69 511.275 1007.84 511.256 1007.97 511.184L1010.1 509.956L1010.94 511.422L1008.82 512.649C1008.3 512.948 1007.68 513.028 1007.11 512.873C1006.53 512.719 1006.04 512.341 1005.74 511.824L987.16 479.649C986.862 479.131 986.781 478.516 986.936 477.939C987.09 477.362 987.467 476.869 987.983 476.569V476.569Z" fill="white"/>
<path d="M1403.09 707.654L1231.88 806.503C1210.23 819.004 1182.44 811.56 1169.94 789.906L924.433 364.675C911.931 343.022 919.377 315.235 941.03 302.734L1112.24 203.885C1133.89 191.384 1161.68 198.83 1174.18 220.482L1419.69 645.713C1432.19 667.367 1424.74 695.153 1403.09 707.654ZM941.875 304.198C921.03 316.233 913.863 342.983 925.898 363.829L1171.41 789.06C1183.44 809.905 1210.19 817.074 1231.04 805.039L1402.25 706.19C1423.09 694.155 1430.26 667.404 1418.22 646.559L1172.72 221.328C1160.68 200.482 1133.93 193.315 1113.09 205.35L941.875 304.198Z" fill="white"/>
<path d="M1401.37 704.718L1230.38 803.44C1210.16 815.114 1184.21 808.163 1172.54 787.943L927.406 363.36C915.733 343.142 922.686 317.195 942.905 305.521L1113.9 206.798C1134.12 195.125 1160.06 202.078 1171.74 222.296L1416.87 646.879C1428.54 667.1 1421.59 693.044 1401.37 704.718ZM943.751 306.987C924.339 318.194 917.665 343.103 928.872 362.514L1174 787.097C1185.21 806.507 1210.12 813.182 1229.53 801.975L1400.53 703.252C1419.94 692.046 1426.61 667.135 1415.4 647.725L1170.27 223.142C1159.06 203.731 1134.15 197.058 1114.74 208.264L943.751 306.987Z" fill="white"/>
<path d="M1393.86 696.497L1226.84 792.925C1210.67 802.261 1189.92 796.701 1180.58 780.53L937.848 360.099C928.513 343.929 934.072 323.18 950.242 313.844L1117.26 217.417C1133.43 208.08 1154.18 213.641 1163.52 229.81L1406.25 650.241C1415.59 666.413 1410.03 687.161 1393.86 696.497ZM951.088 315.31C935.726 324.179 930.447 343.889 939.316 359.251L1182.05 779.682C1190.92 795.044 1210.64 800.326 1226 791.457L1393.01 695.032C1408.37 686.163 1413.66 666.448 1404.79 651.086L1162.05 230.655C1153.18 215.293 1133.47 210.013 1118.11 218.882L951.088 315.31Z" fill="white"/>
</g>
<mask id="mask0_401_12639" style="mask-type:alpha" maskUnits="userSpaceOnUse" x="933" y="213" width="478" height="586">
<rect x="921.084" y="331.547" width="260.58" height="553.304" rx="34.3279" transform="rotate(-30 921.084 331.547)" fill="#C4C4C4"/>
</mask>
<g mask="url(#mask0_401_12639)">
</g>
<g opacity="0.5">
<path d="M467.096 210.562L469.222 209.335L470.069 210.8L467.942 212.028C467.814 212.104 467.721 212.227 467.683 212.371C467.644 212.515 467.663 212.668 467.735 212.798L477.253 229.284C477.329 229.412 477.453 229.506 477.597 229.544C477.741 229.583 477.895 229.564 478.025 229.491L480.151 228.263L480.997 229.729L478.871 230.957C478.353 231.255 477.737 231.336 477.159 231.181C476.582 231.026 476.089 230.648 475.789 230.131L466.27 213.642C465.972 213.124 465.892 212.509 466.046 211.932C466.201 211.354 466.579 210.862 467.096 210.562V210.562Z" fill="white"/>
<path d="M490.501 251.058L492.63 249.829L493.476 251.294L491.349 252.521C491.222 252.598 491.129 252.721 491.09 252.865C491.052 253.009 491.071 253.162 491.144 253.292L509.72 285.467C509.796 285.595 509.919 285.687 510.063 285.726C510.207 285.764 510.36 285.745 510.49 285.673L512.616 284.446L513.462 285.911L511.336 287.139C510.817 287.437 510.202 287.518 509.624 287.363C509.047 287.208 508.554 286.831 508.254 286.313L489.678 254.139C489.38 253.621 489.299 253.006 489.454 252.428C489.608 251.851 489.985 251.359 490.501 251.058V251.058Z" fill="white"/>
<path d="M781.947 175.495L779.82 176.723L778.974 175.259L781.102 174.031C781.229 173.954 781.322 173.831 781.361 173.687C781.399 173.543 781.38 173.39 781.307 173.26L750.412 119.748C750.336 119.62 750.213 119.528 750.069 119.489C749.925 119.451 749.772 119.47 749.642 119.542L747.515 120.77L746.669 119.306L748.797 118.077C749.315 117.779 749.931 117.698 750.508 117.853C751.086 118.008 751.579 118.385 751.879 118.903L782.774 172.415C783.071 172.933 783.152 173.548 782.997 174.126C782.842 174.703 782.464 175.196 781.947 175.495V175.495Z" fill="white"/>
<path d="M516.983 296.926L519.112 295.697L519.958 297.162L517.832 298.39C517.705 298.466 517.612 298.589 517.573 298.733C517.535 298.877 517.554 299.03 517.626 299.16L536.202 331.334C536.278 331.462 536.401 331.555 536.545 331.593C536.689 331.632 536.842 331.613 536.972 331.541L539.098 330.313L539.944 331.779L537.818 333.006C537.299 333.305 536.684 333.385 536.106 333.23C535.529 333.076 535.036 332.698 534.736 332.18L516.16 300.006C515.862 299.488 515.781 298.873 515.936 298.296C516.09 297.718 516.467 297.226 516.983 296.926V296.926Z" fill="white"/>
<path d="M932.092 528.011L760.881 626.86C739.228 639.361 711.442 631.917 698.94 610.263L453.433 185.032C440.931 163.379 448.377 135.592 470.03 123.091L641.241 24.2422C662.893 11.7411 690.68 19.1865 703.181 40.8392L948.689 466.07C961.191 487.724 953.744 515.51 932.092 528.011ZM470.875 124.555C450.03 136.59 442.863 163.34 454.898 184.186L700.406 609.417C712.441 630.262 739.19 637.431 760.035 625.396L931.246 526.547C952.092 514.512 959.26 487.761 947.225 466.916L701.717 41.6846C689.682 20.8392 662.932 13.6715 642.086 25.7065L470.875 124.555Z" fill="white"/>
<path d="M930.372 525.074L759.379 623.797C739.16 635.471 713.213 628.519 701.539 608.3L456.406 183.717C444.733 163.499 451.686 137.552 471.905 125.878L642.898 27.1553C663.117 15.4817 689.063 22.435 700.736 42.6531L945.869 467.236C957.541 487.457 950.591 513.401 930.372 525.074ZM472.751 127.344C453.339 138.551 446.665 163.46 457.872 182.871L703.005 607.454C714.211 626.864 739.121 633.539 758.533 622.332L929.526 523.609C948.935 512.403 955.61 487.492 944.404 468.082L699.271 43.4992C688.064 24.0884 663.154 17.4147 643.744 28.6209L472.751 127.344Z" fill="white"/>
<path d="M922.857 516.854L755.84 613.282C739.669 622.618 718.921 617.058 709.584 600.887L466.848 180.456C457.513 164.286 463.072 143.537 479.242 134.201L646.259 37.7736C662.431 28.4368 683.18 33.9975 692.515 50.1668L935.251 470.598C944.588 486.77 939.029 507.518 922.857 516.854ZM480.088 135.666C464.726 144.536 459.447 164.246 468.316 179.608L711.052 600.039C719.922 615.401 739.635 620.683 754.997 611.814L922.011 515.389C937.373 506.52 942.656 486.805 933.787 471.443L691.051 51.0122C682.182 35.6502 662.467 30.3699 647.105 39.2391L480.088 135.666Z" fill="white"/>
</g>
<mask id="mask1_401_12639" style="mask-type:alpha" maskUnits="userSpaceOnUse" x="462" y="34" width="478" height="585">
<rect x="450.084" y="151.904" width="260.58" height="553.304" rx="34.3279" transform="rotate(-30 450.084 151.904)" fill="#C4C4C4"/>
</mask>
<g mask="url(#mask1_401_12639)">
</g>
<g opacity="0.5">
<path d="M521.41 679.686L523.536 678.458L524.382 679.923L522.256 681.151C522.128 681.227 522.035 681.351 521.996 681.494C521.957 681.638 521.976 681.791 522.048 681.922L531.566 698.408C531.643 698.536 531.766 698.629 531.91 698.668C532.055 698.706 532.208 698.687 532.338 698.614L534.465 697.387L535.311 698.852L533.184 700.08C532.666 700.378 532.051 700.459 531.473 700.304C530.895 700.149 530.403 699.772 530.103 699.254L520.583 682.766C520.285 682.248 520.205 681.632 520.36 681.055C520.515 680.478 520.892 679.985 521.41 679.686V679.686Z" fill="white"/>
<path d="M544.815 720.182L546.944 718.953L547.789 720.417L545.663 721.645C545.535 721.721 545.442 721.845 545.404 721.989C545.366 722.133 545.385 722.286 545.457 722.416L564.033 754.59C564.11 754.718 564.233 754.811 564.377 754.849C564.52 754.888 564.673 754.869 564.803 754.797L566.929 753.569L567.776 755.035L565.649 756.262C565.131 756.561 564.515 756.641 563.938 756.487C563.36 756.332 562.867 755.954 562.568 755.437L543.992 723.262C543.694 722.744 543.613 722.129 543.767 721.552C543.921 720.975 544.298 720.482 544.815 720.182V720.182Z" fill="white"/>
<path d="M836.261 644.619L834.133 645.847L833.288 644.383L835.415 643.154C835.543 643.078 835.636 642.954 835.674 642.81C835.712 642.666 835.693 642.513 835.621 642.383L804.726 588.871C804.649 588.744 804.526 588.651 804.382 588.613C804.239 588.574 804.086 588.593 803.956 588.665L801.828 589.893L800.983 588.429L803.11 587.201C803.629 586.902 804.244 586.822 804.822 586.977C805.4 587.131 805.892 587.509 806.192 588.026L837.087 641.538C837.385 642.056 837.465 642.672 837.31 643.249C837.155 643.827 836.778 644.319 836.261 644.619V644.619Z" fill="white"/>
<path d="M571.297 766.049L573.426 764.82L574.272 766.286L572.145 767.513C572.018 767.59 571.925 767.713 571.887 767.857C571.848 768 571.867 768.153 571.939 768.283L590.515 800.458C590.592 800.585 590.715 800.678 590.858 800.716C591.002 800.755 591.155 800.736 591.285 800.664L593.411 799.436L594.257 800.902L592.131 802.13C591.613 802.428 590.997 802.509 590.42 802.354C589.842 802.199 589.349 801.821 589.05 801.304L570.474 769.129C570.176 768.611 570.095 767.996 570.249 767.419C570.403 766.842 570.78 766.349 571.297 766.049V766.049Z" fill="white"/>
<path d="M986.405 997.134L815.194 1095.98C793.541 1108.48 765.755 1101.04 753.253 1079.39L507.746 654.155C495.245 632.503 502.69 604.716 524.343 592.215L695.554 493.366C717.207 480.865 744.994 488.31 757.495 509.963L1003 935.194C1015.5 956.848 1008.06 984.633 986.405 997.134ZM525.188 593.679C504.343 605.714 497.177 632.464 509.212 653.309L754.719 1078.54C766.754 1099.39 793.503 1106.55 814.349 1094.52L985.56 995.67C1006.41 983.635 1013.57 956.885 1001.54 936.039L756.031 510.808C743.996 489.963 717.245 482.795 696.4 494.83L525.188 593.679Z" fill="white"/>
<path d="M984.685 994.198L813.692 1092.92C793.473 1104.59 767.526 1097.64 755.853 1077.42L510.72 652.841C499.047 632.622 505.999 606.675 526.219 595.001L697.211 496.279C717.431 484.605 743.377 491.558 755.05 511.777L1000.18 936.359C1011.85 956.58 1004.9 982.524 984.685 994.198ZM527.065 596.467C507.653 607.675 500.978 632.584 512.185 651.994L757.318 1076.58C768.524 1095.99 793.434 1102.66 812.846 1091.46L983.839 992.732C1003.25 981.526 1009.92 956.615 998.717 937.206L753.584 512.623C742.377 493.212 717.467 486.538 698.057 497.744L527.065 596.467Z" fill="white"/>
<path d="M977.17 985.978L810.153 1082.41C793.983 1091.74 773.235 1086.18 763.898 1070.01L521.162 649.579C511.826 633.41 517.385 612.66 533.556 603.324L700.573 506.897C716.745 497.56 737.493 503.121 746.829 519.29L989.565 939.721C998.901 955.893 993.342 976.641 977.17 985.978ZM534.402 604.79C519.04 613.659 513.761 633.369 522.63 648.731L765.366 1069.16C774.235 1084.52 793.949 1089.81 809.311 1080.94L976.324 984.512C991.686 975.643 996.97 955.929 988.1 940.567L745.364 520.136C736.495 504.774 716.781 499.493 701.419 508.363L534.402 604.79Z" fill="white"/>
</g>
<mask id="mask2_401_12639" style="mask-type:alpha" maskUnits="userSpaceOnUse" x="516" y="503" width="479" height="585">
<rect x="504.397" y="621.027" width="260.58" height="553.304" rx="34.3279" transform="rotate(-30 504.397 621.027)" fill="#C4C4C4"/>
</mask>
<g mask="url(#mask2_401_12639)">
</g>
<g opacity="0.5">
<path d="M790.177 825.472L792.303 824.244L793.149 825.71L791.023 826.938C790.895 827.014 790.802 827.137 790.763 827.281C790.724 827.425 790.743 827.578 790.815 827.708L800.334 844.194C800.41 844.322 800.533 844.415 800.678 844.454C800.822 844.493 800.975 844.474 801.105 844.401L803.232 843.173L804.078 844.639L801.952 845.867C801.433 846.165 800.818 846.246 800.24 846.091C799.662 845.936 799.17 845.558 798.87 845.041L789.35 828.552C789.052 828.034 788.972 827.419 789.127 826.841C789.282 826.264 789.659 825.772 790.177 825.472V825.472Z" fill="white"/>
<path d="M813.582 865.968L815.711 864.739L816.556 866.204L814.43 867.431C814.302 867.508 814.209 867.631 814.171 867.775C814.133 867.919 814.152 868.072 814.224 868.202L832.8 900.377C832.877 900.504 833 900.597 833.144 900.636C833.287 900.674 833.44 900.655 833.57 900.583L835.696 899.356L836.543 900.821L834.416 902.049C833.898 902.347 833.283 902.428 832.705 902.273C832.127 902.118 831.634 901.741 831.335 901.223L812.759 869.048C812.461 868.531 812.38 867.916 812.534 867.338C812.688 866.761 813.065 866.268 813.582 865.968V865.968Z" fill="white"/>
<path d="M1105.03 790.405L1102.9 791.633L1102.05 790.169L1104.18 788.941C1104.31 788.864 1104.4 788.741 1104.44 788.597C1104.48 788.453 1104.46 788.3 1104.39 788.17L1073.49 734.658C1073.42 734.53 1073.29 734.438 1073.15 734.399C1073.01 734.361 1072.85 734.379 1072.72 734.452L1070.6 735.68L1069.75 734.216L1071.88 732.987C1072.4 732.689 1073.01 732.608 1073.59 732.763C1074.17 732.918 1074.66 733.295 1074.96 733.813L1105.85 787.325C1106.15 787.843 1106.23 788.458 1106.08 789.036C1105.92 789.613 1105.55 790.105 1105.03 790.405V790.405Z" fill="white"/>
<path d="M840.064 911.836L842.193 910.607L843.039 912.072L840.913 913.3C840.785 913.376 840.692 913.499 840.654 913.643C840.615 913.787 840.634 913.94 840.706 914.07L859.282 946.244C859.359 946.372 859.482 946.465 859.626 946.503C859.769 946.541 859.922 946.523 860.052 946.451L862.178 945.223L863.025 946.689L860.898 947.916C860.38 948.214 859.765 948.295 859.187 948.14C858.609 947.986 858.116 947.608 857.817 947.09L839.241 914.916C838.943 914.398 838.862 913.783 839.016 913.206C839.17 912.628 839.547 912.136 840.064 911.836V911.836Z" fill="white"/>
<path d="M1255.17 1142.92L1083.96 1241.77C1062.31 1254.27 1034.52 1246.83 1022.02 1225.17L776.513 799.942C764.012 778.289 771.457 750.502 793.11 738.001L964.321 639.152C985.974 626.651 1013.76 634.096 1026.26 655.749L1271.77 1080.98C1284.27 1102.63 1276.83 1130.42 1255.17 1142.92ZM793.955 739.465C773.11 751.5 765.944 778.25 777.979 799.096L1023.49 1224.33C1035.52 1245.17 1062.27 1252.34 1083.12 1240.31L1254.33 1141.46C1275.17 1129.42 1282.34 1102.67 1270.31 1081.83L1024.8 656.594C1012.76 635.749 986.012 628.581 965.167 640.616L793.955 739.465Z" fill="white"/>
<path d="M1253.45 1139.98L1082.46 1238.71C1062.24 1250.38 1036.29 1243.43 1024.62 1223.21L779.487 798.627C767.814 778.409 774.766 752.462 794.986 740.788L965.978 642.065C986.198 630.392 1012.14 637.345 1023.82 657.563L1268.95 1082.15C1280.62 1102.37 1273.67 1128.31 1253.45 1139.98ZM795.832 742.253C776.42 753.461 769.745 778.37 780.952 797.781L1026.09 1222.36C1037.29 1241.77 1062.2 1248.45 1081.61 1237.24L1252.61 1138.52C1272.02 1127.31 1278.69 1102.4 1267.48 1082.99L1022.35 658.409C1011.14 638.998 986.234 632.325 966.825 643.531L795.832 742.253Z" fill="white"/>
<path d="M1245.94 1131.76L1078.92 1228.19C1062.75 1237.53 1042 1231.97 1032.66 1215.8L789.929 795.366C780.594 779.196 786.152 758.447 802.323 749.111L969.34 652.683C985.512 643.347 1006.26 648.907 1015.6 665.077L1258.33 1085.51C1267.67 1101.68 1262.11 1122.43 1245.94 1131.76ZM803.169 750.576C787.807 759.446 782.528 779.156 791.397 794.518L1034.13 1214.95C1043 1230.31 1062.72 1235.59 1078.08 1226.72L1245.09 1130.3C1260.45 1121.43 1265.74 1101.72 1256.87 1086.35L1014.13 665.922C1005.26 650.56 985.548 645.28 970.186 654.149L803.169 750.576Z" fill="white"/>
</g>
<mask id="mask3_401_12639" style="mask-type:alpha" maskUnits="userSpaceOnUse" x="785" y="649" width="478" height="585">
<rect x="773.165" y="766.813" width="260.58" height="553.304" rx="34.3279" transform="rotate(-30 773.165 766.813)" fill="#C4C4C4"/>
</mask>
<g mask="url(#mask3_401_12639)">
</g>
<g opacity="0.5">
<path d="M39.0962 215.562L41.2225 214.335L42.0686 215.8L39.9423 217.028C39.8145 217.104 39.7213 217.227 39.6826 217.371C39.6439 217.515 39.6626 217.668 39.7348 217.798L49.253 234.284C49.3295 234.412 49.4529 234.506 49.597 234.544C49.7411 234.583 49.8945 234.564 50.0248 234.491L52.1511 233.263L52.9972 234.729L50.871 235.957C50.3526 236.255 49.7372 236.336 49.1595 236.181C48.5818 236.026 48.0891 235.648 47.7894 235.131L38.2698 218.642C37.9719 218.124 37.8916 217.509 38.0465 216.932C38.2014 216.354 38.5789 215.862 39.0962 215.562V215.562Z" fill="white"/>
<path d="M62.5014 256.058L64.6302 254.829L65.4756 256.294L63.3493 257.521C63.2217 257.598 63.1288 257.721 63.0905 257.865C63.0521 258.009 63.0712 258.162 63.1437 258.292L81.7198 290.467C81.7963 290.595 81.9194 290.687 82.063 290.726C82.2067 290.764 82.3596 290.745 82.4897 290.673L84.6159 289.446L85.4621 290.911L83.3358 292.139C82.8175 292.437 82.202 292.518 81.6243 292.363C81.0466 292.208 80.5539 291.831 80.2542 291.313L61.6782 259.139C61.3801 258.621 61.2993 258.006 61.4536 257.428C61.6079 256.851 61.9847 256.359 62.5014 256.058V256.058Z" fill="white"/>
<path d="M353.947 180.495L351.82 181.723L350.974 180.259L353.102 179.031C353.229 178.954 353.322 178.831 353.361 178.687C353.399 178.543 353.38 178.39 353.307 178.26L322.412 124.748C322.336 124.62 322.213 124.528 322.069 124.489C321.925 124.451 321.772 124.47 321.642 124.542L319.515 125.77L318.669 124.306L320.797 123.077C321.315 122.779 321.931 122.698 322.508 122.853C323.086 123.008 323.579 123.385 323.879 123.903L354.774 177.415C355.071 177.933 355.152 178.548 354.997 179.126C354.842 179.703 354.464 180.196 353.947 180.495V180.495Z" fill="white"/>
<path d="M88.9834 301.926L91.1121 300.697L91.9582 302.162L89.832 303.39C89.7045 303.466 89.6118 303.589 89.5733 303.733C89.5348 303.877 89.5536 304.03 89.6257 304.16L108.202 336.334C108.278 336.462 108.401 336.555 108.545 336.593C108.689 336.632 108.842 336.613 108.972 336.541L111.098 335.313L111.944 336.779L109.818 338.006C109.299 338.305 108.684 338.385 108.106 338.23C107.529 338.076 107.036 337.698 106.736 337.18L88.1602 305.006C87.862 304.488 87.7813 303.873 87.9356 303.296C88.0899 302.718 88.4666 302.226 88.9834 301.926V301.926Z" fill="white"/>
<path d="M504.092 533.011L332.881 631.86C311.228 644.361 283.442 636.917 270.94 615.263L25.4326 190.032C12.9314 168.379 20.3769 140.592 42.0295 128.091L213.241 29.2422C234.893 16.7411 262.68 24.1865 275.181 45.8392L520.689 471.07C533.191 492.724 525.744 520.51 504.092 533.011ZM42.8749 129.555C22.0296 141.59 14.8631 168.34 26.8981 189.186L272.406 614.417C284.441 635.262 311.19 642.431 332.035 630.396L503.246 531.547C524.092 519.512 531.26 492.761 519.225 471.916L273.717 46.6846C261.682 25.8392 234.932 18.6715 214.086 30.7065L42.8749 129.555Z" fill="white"/>
<path d="M502.372 530.074L331.379 628.797C311.16 640.471 285.213 633.519 273.539 613.3L28.4062 188.717C16.7332 168.499 23.6858 142.552 43.9052 130.878L214.898 32.1553C235.117 20.4817 261.063 27.435 272.736 47.6531L517.869 472.236C529.541 492.457 522.591 518.401 502.372 530.074ZM44.7513 132.344C25.3392 143.551 18.6649 168.46 29.8717 187.871L275.005 612.454C286.211 631.864 311.121 638.539 330.533 627.332L501.526 528.609C520.935 517.403 527.61 492.492 516.404 473.082L271.271 48.4992C260.064 29.0884 235.154 22.4147 215.744 33.6209L44.7513 132.344Z" fill="white"/>
<path d="M494.857 521.854L327.84 618.282C311.669 627.618 290.921 622.058 281.584 605.887L38.8483 185.456C29.513 169.286 35.0717 148.537 51.2422 139.201L218.259 42.7736C234.431 33.4368 255.18 38.9975 264.515 55.1668L507.251 475.598C516.588 491.77 511.029 512.518 494.857 521.854ZM52.0884 140.666C36.7264 149.536 31.4471 169.246 40.3164 184.608L283.052 605.039C291.922 620.401 311.635 625.683 326.997 616.814L494.011 520.389C509.373 511.52 514.656 491.805 505.787 476.443L263.051 56.0122C254.182 40.6502 234.467 35.3699 219.105 44.2391L52.0884 140.666Z" fill="white"/>
</g>
<mask id="mask4_401_12639" style="mask-type:alpha" maskUnits="userSpaceOnUse" x="-18" y="-16" width="478" height="585">
<rect x="-30.3691" y="102.013" width="260.58" height="553.304" rx="34.3279" transform="rotate(-30 -30.3691 102.013)" fill="#C4C4C4"/>
</mask>
<g mask="url(#mask4_401_12639)">
</g>
<g opacity="0.5">
<path d="M1136.1 1026.56L1138.22 1025.33L1139.07 1026.8L1136.94 1028.03C1136.81 1028.1 1136.72 1028.23 1136.68 1028.37C1136.64 1028.51 1136.66 1028.67 1136.73 1028.8L1146.25 1045.28C1146.33 1045.41 1146.45 1045.51 1146.6 1045.54C1146.74 1045.58 1146.89 1045.56 1147.02 1045.49L1149.15 1044.26L1150 1045.73L1147.87 1046.96C1147.35 1047.25 1146.74 1047.34 1146.16 1047.18C1145.58 1047.03 1145.09 1046.65 1144.79 1046.13L1135.27 1029.64C1134.97 1029.12 1134.89 1028.51 1135.05 1027.93C1135.2 1027.35 1135.58 1026.86 1136.1 1026.56V1026.56Z" fill="white"/>
<path d="M1159.5 1067.06L1161.63 1065.83L1162.48 1067.29L1160.35 1068.52C1160.22 1068.6 1160.13 1068.72 1160.09 1068.87C1160.05 1069.01 1160.07 1069.16 1160.14 1069.29L1178.72 1101.47C1178.8 1101.59 1178.92 1101.69 1179.06 1101.73C1179.21 1101.76 1179.36 1101.75 1179.49 1101.67L1181.62 1100.45L1182.46 1101.91L1180.34 1103.14C1179.82 1103.44 1179.2 1103.52 1178.62 1103.36C1178.05 1103.21 1177.55 1102.83 1177.25 1102.31L1158.68 1070.14C1158.38 1069.62 1158.3 1069.01 1158.45 1068.43C1158.61 1067.85 1158.98 1067.36 1159.5 1067.06V1067.06Z" fill="white"/>
<path d="M1450.95 991.495L1448.82 992.723L1447.97 991.259L1450.1 990.031C1450.23 989.954 1450.32 989.831 1450.36 989.687C1450.4 989.543 1450.38 989.39 1450.31 989.26L1419.41 935.748C1419.34 935.62 1419.21 935.528 1419.07 935.489C1418.93 935.451 1418.77 935.47 1418.64 935.542L1416.51 936.77L1415.67 935.306L1417.8 934.077C1418.32 933.779 1418.93 933.698 1419.51 933.853C1420.09 934.008 1420.58 934.385 1420.88 934.903L1451.77 988.415C1452.07 988.933 1452.15 989.548 1452 990.126C1451.84 990.703 1451.46 991.196 1450.95 991.495V991.495Z" fill="white"/>
<path d="M1185.98 1112.93L1188.11 1111.7L1188.96 1113.16L1186.83 1114.39C1186.7 1114.47 1186.61 1114.59 1186.57 1114.73C1186.53 1114.88 1186.55 1115.03 1186.63 1115.16L1205.2 1147.33C1205.28 1147.46 1205.4 1147.55 1205.54 1147.59C1205.69 1147.63 1205.84 1147.61 1205.97 1147.54L1208.1 1146.31L1208.94 1147.78L1206.82 1149.01C1206.3 1149.3 1205.68 1149.39 1205.11 1149.23C1204.53 1149.08 1204.04 1148.7 1203.74 1148.18L1185.16 1116.01C1184.86 1115.49 1184.78 1114.87 1184.94 1114.3C1185.09 1113.72 1185.47 1113.23 1185.98 1112.93V1112.93Z" fill="white"/>
<path d="M1601.09 1344.01L1429.88 1442.86C1408.23 1455.36 1380.44 1447.92 1367.94 1426.26L1122.43 1001.03C1109.93 979.379 1117.38 951.592 1139.03 939.091L1310.24 840.242C1331.89 827.741 1359.68 835.187 1372.18 856.839L1617.69 1282.07C1630.19 1303.72 1622.74 1331.51 1601.09 1344.01ZM1139.87 940.555C1119.03 952.59 1111.86 979.34 1123.9 1000.19L1369.41 1425.42C1381.44 1446.26 1408.19 1453.43 1429.04 1441.4L1600.25 1342.55C1621.09 1330.51 1628.26 1303.76 1616.22 1282.92L1370.72 857.685C1358.68 836.839 1331.93 829.671 1311.09 841.707L1139.87 940.555Z" fill="white"/>
<path d="M1599.37 1341.07L1428.38 1439.8C1408.16 1451.47 1382.21 1444.52 1370.54 1424.3L1125.41 999.717C1113.73 979.499 1120.69 953.552 1140.91 941.878L1311.9 843.155C1332.12 831.482 1358.06 838.435 1369.74 858.653L1614.87 1283.24C1626.54 1303.46 1619.59 1329.4 1599.37 1341.07ZM1141.75 943.344C1122.34 954.551 1115.66 979.46 1126.87 998.871L1372 1423.45C1383.21 1442.86 1408.12 1449.54 1427.53 1438.33L1598.53 1339.61C1617.94 1328.4 1624.61 1303.49 1613.4 1284.08L1368.27 859.499C1357.06 840.088 1332.15 833.415 1312.74 844.621L1141.75 943.344Z" fill="white"/>
<path d="M1591.86 1332.85L1424.84 1429.28C1408.67 1438.62 1387.92 1433.06 1378.58 1416.89L1135.85 996.456C1126.51 980.286 1132.07 959.537 1148.24 950.201L1315.26 853.774C1331.43 844.437 1352.18 849.997 1361.52 866.167L1604.25 1286.6C1613.59 1302.77 1608.03 1323.52 1591.86 1332.85ZM1149.09 951.666C1133.73 960.536 1128.45 980.246 1137.32 995.608L1380.05 1416.04C1388.92 1431.4 1408.64 1436.68 1424 1427.81L1591.01 1331.39C1606.37 1322.52 1611.66 1302.81 1602.79 1287.44L1360.05 867.012C1351.18 851.65 1331.47 846.37 1316.11 855.239L1149.09 951.666Z" fill="white"/>
</g>
<mask id="mask5_401_12639" style="mask-type:alpha" maskUnits="userSpaceOnUse" x="1131" y="850" width="478" height="585">
<rect x="1119.08" y="967.904" width="260.58" height="553.304" rx="34.3279" transform="rotate(-30 1119.08 967.904)" fill="#C4C4C4"/>
</mask>
<g mask="url(#mask5_401_12639)">
</g>
</svg>
