<svg width="227" height="214" viewBox="0 0 227 214" fill="none" xmlns="http://www.w3.org/2000/svg">
<rect width="227" height="214" fill="#E7E7E7"/>
<path d="M147.479 26.9924C138.851 18.2109 126.801 13.375 113.5 13.375C100.128 13.375 88.038 18.1816 79.4501 26.9088C70.7691 35.7321 66.5395 47.7237 67.5326 60.6723C69.5011 86.2186 90.1218 107 113.5 107C136.878 107 157.464 86.2228 159.463 60.6807C160.47 47.8491 156.213 35.8826 147.479 26.9924ZM191.531 200.625H35.4688C33.4261 200.65 31.4032 200.245 29.5472 199.441C27.6912 198.636 26.0488 197.451 24.7395 195.973C21.8577 192.725 20.6961 188.291 21.5562 183.806C25.2982 164.237 36.9763 147.798 55.3313 136.258C71.6381 126.013 92.2942 120.375 113.5 120.375C134.706 120.375 155.362 126.018 171.669 136.258C190.024 147.794 201.702 164.232 205.444 183.802C206.304 188.287 205.142 192.721 202.261 195.969C200.952 197.448 199.31 198.633 197.454 199.439C195.598 200.244 193.574 200.65 191.531 200.625Z" fill="white"/>
</svg>
