<svg xmlns="http://www.w3.org/2000/svg" xmlns:xlink="http://www.w3.org/1999/xlink" width="1437" height="1016" viewBox="0 0 1437 1016">
  <defs>
    <clipPath id="clip-path">
      <rect width="95.549" height="26.137" fill="none"/>
    </clipPath>
    <clipPath id="clip-path-2">
      <rect width="24.389" height="22.965" fill="none"/>
    </clipPath>
    <filter id="Path_268" x="491.969" y="394.047" width="350.941" height="114.406" filterUnits="userSpaceOnUse">
      <feOffset dy="3" input="SourceAlpha"/>
      <feGaussianBlur stdDeviation="3" result="blur"/>
      <feFlood flood-opacity="0.161"/>
      <feComposite operator="in" in2="blur"/>
      <feComposite in="SourceGraphic"/>
    </filter>
    <filter id="Path_268-2" x="491.969" y="268.047" width="350.941" height="114.406" filterUnits="userSpaceOnUse">
      <feOffset dy="3" input="SourceAlpha"/>
      <feGaussianBlur stdDeviation="3" result="blur-2"/>
      <feFlood flood-opacity="0.161"/>
      <feComposite operator="in" in2="blur-2"/>
      <feComposite in="SourceGraphic"/>
    </filter>
    <filter id="Path_268-3" x="491.969" y="129.047" width="350.941" height="127.833" filterUnits="userSpaceOnUse">
      <feOffset dy="3" input="SourceAlpha"/>
      <feGaussianBlur stdDeviation="3" result="blur-3"/>
      <feFlood flood-opacity="0.161"/>
      <feComposite operator="in" in2="blur-3"/>
      <feComposite in="SourceGraphic"/>
    </filter>
    <clipPath id="clip-path-4">
      <rect width="350.941" height="145.833" fill="none"/>
    </clipPath>
    <filter id="Path_268-4" x="491.969" y="519.047" width="350.941" height="145.833" filterUnits="userSpaceOnUse">
      <feOffset dy="3" input="SourceAlpha"/>
      <feGaussianBlur stdDeviation="3" result="blur-4"/>
      <feFlood flood-opacity="0.161"/>
      <feComposite operator="in" in2="blur-4"/>
      <feComposite in="SourceGraphic"/>
    </filter>
    <clipPath id="clip-path-5">
      <rect width="67" height="145.333" fill="none"/>
    </clipPath>
    <filter id="Path_290" x="851.91" y="564.547" width="67" height="145.333" filterUnits="userSpaceOnUse">
      <feOffset dy="6" input="SourceAlpha"/>
      <feGaussianBlur stdDeviation="3" result="blur-5"/>
      <feFlood flood-opacity="0.161"/>
      <feComposite operator="in" in2="blur-5"/>
      <feComposite in="SourceGraphic"/>
    </filter>
    <filter id="Path_290-2" x="852.91" y="420.547" width="67" height="145.333" filterUnits="userSpaceOnUse">
      <feOffset dy="6" input="SourceAlpha"/>
      <feGaussianBlur stdDeviation="3" result="blur-6"/>
      <feFlood flood-opacity="0.161"/>
      <feComposite operator="in" in2="blur-6"/>
      <feComposite in="SourceGraphic"/>
    </filter>
    <filter id="Path_290-3" x="852.91" y="132.547" width="67" height="145.333" filterUnits="userSpaceOnUse">
      <feOffset dy="6" input="SourceAlpha"/>
      <feGaussianBlur stdDeviation="3" result="blur-7"/>
      <feFlood flood-opacity="0.161"/>
      <feComposite operator="in" in2="blur-7"/>
      <feComposite in="SourceGraphic"/>
    </filter>
    <filter id="Path_268-5" x="37.059" y="411.859" width="350.941" height="122.5" filterUnits="userSpaceOnUse">
      <feOffset dy="3" input="SourceAlpha"/>
      <feGaussianBlur stdDeviation="3" result="blur-8"/>
      <feFlood flood-opacity="0.161"/>
      <feComposite operator="in" in2="blur-8"/>
      <feComposite in="SourceGraphic"/>
    </filter>
    <filter id="Path_290-4" x="393" y="415.359" width="67" height="145.333" filterUnits="userSpaceOnUse">
      <feOffset dy="6" input="SourceAlpha"/>
      <feGaussianBlur stdDeviation="3" result="blur-9"/>
      <feFlood flood-opacity="0.161"/>
      <feComposite operator="in" in2="blur-9"/>
      <feComposite in="SourceGraphic"/>
    </filter>
    <filter id="Path_290-5" x="852.91" y="276.547" width="67" height="145.333" filterUnits="userSpaceOnUse">
      <feOffset dy="6" input="SourceAlpha"/>
      <feGaussianBlur stdDeviation="3" result="blur-10"/>
      <feFlood flood-opacity="0.161"/>
      <feComposite operator="in" in2="blur-10"/>
      <feComposite in="SourceGraphic"/>
    </filter>
    <filter id="Ellipse_120" x="126" y="554.547" width="79" height="79" filterUnits="userSpaceOnUse">
      <feOffset dy="5" input="SourceAlpha"/>
      <feGaussianBlur stdDeviation="5" result="blur-11"/>
      <feFlood flood-opacity="0.302"/>
      <feComposite operator="in" in2="blur-11"/>
      <feComposite in="SourceGraphic"/>
    </filter>
    <clipPath id="clip-path-28">
      <rect width="108" height="108" fill="none"/>
    </clipPath>
    <filter id="Ellipse_120-2" x="33" y="548.547" width="108" height="108" filterUnits="userSpaceOnUse">
      <feOffset dy="5" input="SourceAlpha"/>
      <feGaussianBlur stdDeviation="5" result="blur-12"/>
      <feFlood flood-opacity="0.302"/>
      <feComposite operator="in" in2="blur-12"/>
      <feComposite in="SourceGraphic"/>
    </filter>
    <clipPath id="clip-Toaster_Alerts">
      <rect width="1437" height="1016"/>
    </clipPath>
  </defs>
  <g id="Toaster_Alerts" data-name="Toaster Alerts" clip-path="url(#clip-Toaster_Alerts)">
    <rect width="1437" height="1016" fill="#fff"/>
    <g id="Group_473" data-name="Group 473" transform="translate(-3620 -43.547)">
      <path id="Path_487" data-name="Path 487" d="M4.306,0H392.725c2.378,0,4.306,2.387,4.306,7.813v99.28c0,5.426-1.928,7.813-4.306,7.813H4.306c-2.378,0-4.306-2.387-4.306-7.813V7.813C0,2.387,1.928,0,4.306,0Z" transform="translate(3666.059 320)" fill="#f7cda3"/>
      <g id="Group_865" data-name="Group 865" transform="translate(8817 -21377)">
        <g id="Group_391" data-name="Group 391" transform="translate(-5096.851 21737.676)">
          <text id="First_Name" data-name="First Name" font-size="14" font-family="OpenSans, Open Sans"><tspan x="0" y="15">Verify address, AVS no match</tspan></text>
        </g>
      </g>
      <g id="Component_620_1" data-name="Component 620 – 1" transform="translate(3719.111 387.676)" clip-path="url(#clip-path)">
        <path id="Path_267" data-name="Path 267" d="M2.954,0h89.64a3.067,3.067,0,0,1,2.954,3.168v19.8a3.067,3.067,0,0,1-2.954,3.168H2.954A3.067,3.067,0,0,1,0,22.969V3.168A3.067,3.067,0,0,1,2.954,0Z" fill="#ec871f" opacity="0.6"/>
        <text id="First_Name-2" data-name="First Name" transform="translate(9.037 4)" fill="#fff" font-size="12" font-family="Open Sans" font-weight="700"><tspan x="10.234" y="13">Complete</tspan></text>
      </g>
      <text id="Time_Back_Guarantee" data-name="Time Back Guarantee" transform="translate(3719 336)" font-size="16" font-family="Open Sans" font-weight="700"><tspan x="0" y="17">Time Back Guarantee</tspan></text>
      <g id="Component_617_1" data-name="Component 617 – 1" transform="translate(3687.328 337.035)" clip-path="url(#clip-path-2)">
        <ellipse id="Ellipse_85" data-name="Ellipse 85" cx="7" cy="8.5" rx="7" ry="8.5" transform="translate(5.672 5.965)" fill="#fff"/>
        <path id="warning" d="M12.921,18.693V16.11a.434.434,0,0,0-.129-.319.418.418,0,0,0-.306-.129H9.876a.418.418,0,0,0-.306.129.434.434,0,0,0-.129.319v2.583a.434.434,0,0,0,.129.319.418.418,0,0,0,.306.129h2.61a.418.418,0,0,0,.306-.129A.434.434,0,0,0,12.921,18.693Zm-.027-5.084.245-6.24A.3.3,0,0,0,13,7.11a.525.525,0,0,0-.326-.15H9.685a.525.525,0,0,0-.326.15.325.325,0,0,0-.136.285l.231,6.213a.261.261,0,0,0,.136.224.586.586,0,0,0,.326.088h2.515a.553.553,0,0,0,.319-.088A.3.3,0,0,0,12.894,13.608ZM12.7.911,23.144,20.052a1.622,1.622,0,0,1-.027,1.713,1.739,1.739,0,0,1-1.5.856H.74a1.7,1.7,0,0,1-.863-.231,1.708,1.708,0,0,1-.632-.625,1.622,1.622,0,0,1-.027-1.713L9.658.911A1.736,1.736,0,0,1,10.3.245a1.718,1.718,0,0,1,1.767,0A1.736,1.736,0,0,1,12.7.911Z" transform="translate(1.014)" fill="#ec871f"/>
      </g>
    </g>
    <g id="Group_474" data-name="Group 474" transform="translate(-721.09 -225.453)">
      <g transform="matrix(1, 0, 0, 1, 721.09, 225.45)" filter="url(#Path_268)">
        <path id="Path_268-6" data-name="Path 268" d="M3.611,0H329.33c1.994,0,3.611,2,3.611,6.555v83.3c0,4.552-1.617,6.555-3.611,6.555H3.611C1.617,96.406,0,94.4,0,89.851V6.555C0,2,1.617,0,3.611,0Z" transform="translate(500.97 400.05)" fill="#f7cda3"/>
      </g>
      <text id="Conference_occured_more_than_24_hours_ago." data-name="Conference occured more than 24 hours ago." transform="translate(1268 640)" font-size="16" font-family="Open Sans" font-weight="700"><tspan x="0" y="17">Conference occured more than </tspan><tspan x="0" y="39">24 hours ago.</tspan></text>
      <path id="caret-right" d="M582.066,389.392a.648.648,0,0,1-.2.474l-4.718,4.718A.674.674,0,0,1,576,394.11v-9.436a.67.67,0,0,1,1.148-.474l4.718,4.718A.648.648,0,0,1,582.066,389.392Z" transform="translate(959.5 311.153)" fill="#ec871f"/>
      <text id="Close" transform="translate(1502 704)" fill="#ec871f" font-size="11" font-family="Open Sans" font-weight="700"><tspan x="0" y="0">Close</tspan></text>
    </g>
    <g id="Group_475" data-name="Group 475" transform="translate(-728.09 -551.453)">
      <g transform="matrix(1, 0, 0, 1, 728.09, 551.45)" filter="url(#Path_268-2)">
        <path id="Path_268-7" data-name="Path 268" d="M3.611,0H329.33c1.994,0,3.611,2,3.611,6.555v83.3c0,4.552-1.617,6.555-3.611,6.555H3.611C1.617,96.406,0,94.4,0,89.851V6.555C0,2,1.617,0,3.611,0Z" transform="translate(500.97 274.05)" fill="#f7cda3"/>
      </g>
      <text id="Conference_is_too_long" data-name="Conference is too long" transform="translate(1275 840)" font-size="16" font-family="Open Sans" font-weight="700"><tspan x="0" y="17">Conference is too long</tspan></text>
      <path id="caret-right-2" data-name="caret-right" d="M582.066,389.392a.648.648,0,0,1-.2.474l-4.718,4.718A.674.674,0,0,1,576,394.11v-9.436a.67.67,0,0,1,1.148-.474l4.718,4.718A.648.648,0,0,1,582.066,389.392Z" transform="translate(966.5 511.153)" fill="#ec871f"/>
      <text id="Close-2" data-name="Close" transform="translate(1509 904)" fill="#ec871f" font-size="11" font-family="Open Sans" font-weight="700"><tspan x="0" y="0">Close</tspan></text>
      <g id="Group_458" data-name="Group 458" transform="translate(6374 -20874)">
        <g id="Group_391-2" data-name="Group 391" transform="translate(-5096.851 21737.676)">
          <text id="First_Name-3" data-name="First Name" fill="#030303" font-size="14" font-family="OpenSans, Open Sans"><tspan x="0" y="15">TBG rules require conference length </tspan><tspan x="0" y="34">to be 20 mins or less.</tspan></text>
        </g>
      </g>
    </g>
    <g id="Group_476" data-name="Group 476" transform="translate(4634.91 5383.547)">
      <g id="Group_456" data-name="Group 456" transform="translate(-5363 -6185)">
        <g id="Group_454" data-name="Group 454" transform="translate(6005 7509)">
          <g id="Group_452" data-name="Group 452" transform="translate(-5929 -7818)">
            <g transform="matrix(1, 0, 0, 1, 652.09, 1110.45)" filter="url(#Path_268-3)">
              <path id="Path_268-8" data-name="Path 268" d="M3.611,0H329.33c1.994,0,3.611,2.282,3.611,7.468v94.9c0,5.186-1.617,7.468-3.611,7.468H3.611c-1.994,0-3.611-2.282-3.611-7.468V7.468C0,2.282,1.617,0,3.611,0Z" transform="translate(500.97 135.05)" fill="#f7cda3"/>
            </g>
            <path id="Path_267-2" data-name="Path 267" d="M5.2,0H163.023c2.873,0,5.2,1.418,5.2,3.168v19.8c0,1.75-2.329,3.168-5.2,3.168H5.2c-2.873,0-5.2-1.418-5.2-3.168V3.168C0,1.418,2.329,0,5.2,0Z" transform="translate(1201.109 1311.949)" fill="#ec871f" opacity="0.6"/>
            <text id="First_Name-4" data-name="First Name" transform="translate(1214.148 1315.676)" fill="#fff" font-size="12" font-family="Open Sans" font-weight="700"><tspan x="9.133" y="13">MGB &amp; TBG Summary</tspan></text>
            <text id="Customer_is_not_in_good_standing" data-name="Customer is not in good standing" transform="translate(1201 1260)" font-size="16" font-family="Open Sans" font-weight="700"><tspan x="0" y="17">Customer is not in good </tspan><tspan x="0" y="39">standing</tspan></text>
          </g>
          <path id="caret-right-3" data-name="caret-right" d="M582.066,389.392a.648.648,0,0,1-.2.474l-4.718,4.718A.674.674,0,0,1,576,394.11v-9.436a.67.67,0,0,1,1.148-.474l4.718,4.718A.648.648,0,0,1,582.066,389.392Z" transform="translate(-5038.5 -6871.847)" fill="#ec871f"/>
          <text id="Close-3" data-name="Close" transform="translate(-4496 -6479)" fill="#ec871f" font-size="11" font-family="Open Sans" font-weight="700"><tspan x="0" y="0">Close</tspan></text>
        </g>
      </g>
      <g id="Component_635_6" data-name="Component 635 – 6" transform="translate(-4113.902 -5231.965)" clip-path="url(#clip-path-2)">
        <ellipse id="Ellipse_85-2" data-name="Ellipse 85" cx="7" cy="8.5" rx="7" ry="8.5" transform="translate(5.672 5.965)" fill="#fff"/>
        <path id="warning-2" data-name="warning" d="M12.921,18.693V16.11a.434.434,0,0,0-.129-.319.418.418,0,0,0-.306-.129H9.876a.418.418,0,0,0-.306.129.434.434,0,0,0-.129.319v2.583a.434.434,0,0,0,.129.319.418.418,0,0,0,.306.129h2.61a.418.418,0,0,0,.306-.129A.434.434,0,0,0,12.921,18.693Zm-.027-5.084.245-6.24A.3.3,0,0,0,13,7.11a.525.525,0,0,0-.326-.15H9.685a.525.525,0,0,0-.326.15.325.325,0,0,0-.136.285l.231,6.213a.261.261,0,0,0,.136.224.586.586,0,0,0,.326.088h2.515a.553.553,0,0,0,.319-.088A.3.3,0,0,0,12.894,13.608ZM12.7.911,23.144,20.052a1.622,1.622,0,0,1-.027,1.713,1.739,1.739,0,0,1-1.5.856H.74a1.7,1.7,0,0,1-.863-.231,1.708,1.708,0,0,1-.632-.625,1.622,1.622,0,0,1-.027-1.713L9.658.911A1.736,1.736,0,0,1,10.3.245a1.718,1.718,0,0,1,1.767,0A1.736,1.736,0,0,1,12.7.911Z" transform="translate(1.014)" fill="#ec871f"/>
      </g>
    </g>
    <g id="Component_632_1" data-name="Component 632 – 1" transform="translate(491.969 519.047)" clip-path="url(#clip-path-4)">
      <g id="Group_456-2" data-name="Group 456" transform="translate(-1220.059 -930.5)">
        <g id="Group_454-2" data-name="Group 454" transform="translate(6005 7509)">
          <g id="Group_452-2" data-name="Group 452" transform="translate(-5929 -7818)">
            <g transform="matrix(1, 0, 0, 1, 652.09, 720.45)" filter="url(#Path_268-4)">
              <path id="Path_268-9" data-name="Path 268" d="M3.611,0H329.33c1.994,0,3.611,2.655,3.611,8.692v110.45c0,6.036-1.617,8.692-3.611,8.692H3.611c-1.994,0-3.611-2.655-3.611-8.692V8.692C0,2.655,1.617,0,3.611,0Z" transform="translate(500.97 525.05)" fill="#f7cda3"/>
            </g>
            <path id="Path_267-3" data-name="Path 267" d="M2.7,0H84.689a2.963,2.963,0,0,1,2.7,3.168v19.8a2.963,2.963,0,0,1-2.7,3.168H2.7A2.963,2.963,0,0,1,0,22.969V3.168A2.963,2.963,0,0,1,2.7,0Z" transform="translate(1201.109 1332.949)" fill="#ec871f" opacity="0.6"/>
            <text id="First_Name-5" data-name="First Name" transform="translate(1215.148 1337.676)" fill="#fff" font-size="12" font-family="Open Sans" font-weight="700"><tspan x="8.055" y="13">Review</tspan></text>
            <text id="Open_TBG_Memos_for_advisor_IVY_x8039_in_the_last_90_days." data-name="Open TBG Memos for advisor IVY x8039 in the last 90 days." transform="translate(1201 1260)" font-size="16" font-family="Open Sans" font-weight="700"><tspan x="0" y="17">Open TBG Memos for advisor </tspan><tspan x="0" y="39">IVY x8039 in the last 90 days.</tspan></text>
          </g>
          <path id="caret-right-4" data-name="caret-right" d="M582.066,389.392a.648.648,0,0,1-.2.474l-4.718,4.718A.674.674,0,0,1,576,394.11v-9.436a.67.67,0,0,1,1.148-.474l4.718,4.718A.648.648,0,0,1,582.066,389.392Z" transform="translate(-5038.5 -6854.847)" fill="#ec871f"/>
          <text id="Close-4" data-name="Close" transform="translate(-4496 -6462)" fill="#ec871f" font-size="11" font-family="Open Sans" font-weight="700"><tspan x="0" y="0">Close</tspan></text>
        </g>
        <g id="Group_461" data-name="Group 461" transform="translate(6372 -20741)">
          <g id="Group_391-3" data-name="Group 391" transform="translate(-5096.851 21737.676)">
            <text id="First_Name-6" data-name="First Name" fill="#030303" font-size="14" font-family="OpenSans, Open Sans"><tspan x="0" y="15">Please review memos</tspan></text>
          </g>
        </g>
      </g>
      <g id="Group_468" data-name="Group 468" transform="translate(4180.941 5243.5)">
        <circle id="Ellipse_91" data-name="Ellipse 91" cx="12.5" cy="12.5" r="12.5" transform="translate(-4157 -5222)" fill="#ec871f"/>
        <text id="_6" data-name="6" transform="translate(-4144 -5204)" fill="#fffefe" font-size="15" font-family="Open Sans" font-weight="700"><tspan x="-4.288" y="0">6</tspan></text>
      </g>
    </g>
    <g id="Group_477" data-name="Group 477" transform="translate(806.91 -270.453)">
      <g id="Component_634_1" data-name="Component 634 – 1" transform="translate(45 835)" clip-path="url(#clip-path-5)">
        <g id="Group_471" data-name="Group 471" transform="translate(-1510 -903)">
          <g transform="matrix(1, 0, 0, 1, 658.09, 338.45)" filter="url(#Path_290)">
            <path id="Path_290-6" data-name="Path 290" d="M5,0H44a4.914,4.914,0,0,1,5,4.823V122.51a4.914,4.914,0,0,1-5,4.823H5a4.914,4.914,0,0,1-5-4.823V4.823A4.914,4.914,0,0,1,5,0Z" transform="translate(860.91 567.55)" fill="#f7cda3"/>
          </g>
          <g id="Group_466" data-name="Group 466" transform="translate(7)">
            <path id="caret-right-5" data-name="caret-right" d="M582.066,389.392a.648.648,0,0,1-.2.474l-4.718,4.718A.674.674,0,0,1,576,394.11v-9.436a.67.67,0,0,1,1.148-.474l4.718,4.718A.648.648,0,0,1,582.066,389.392Z" transform="translate(2099.566 1401.938) rotate(180)" fill="#ec871f"/>
            <text id="Open" transform="translate(1527 1016)" fill="#ec871f" font-size="11" font-family="Open Sans" font-weight="700"><tspan x="0" y="0">Open</tspan></text>
          </g>
        </g>
        <g id="Group_472" data-name="Group 472" transform="translate(4179 5240)">
          <circle id="Ellipse_91-2" data-name="Ellipse 91" cx="12.5" cy="12.5" r="12.5" transform="translate(-4157 -5222)" fill="#ec871f"/>
          <text id="_6-2" data-name="6" transform="translate(-4144 -5204)" fill="#fffefe" font-size="15" font-family="Open Sans" font-weight="700"><tspan x="-4.288" y="0">6</tspan></text>
        </g>
      </g>
    </g>
    <g id="Group_478" data-name="Group 478" transform="translate(-657.09 -482.453)">
      <g transform="matrix(1, 0, 0, 1, 657.09, 482.45)" filter="url(#Path_290-2)">
        <path id="Path_290-7" data-name="Path 290" d="M5,0H44a4.914,4.914,0,0,1,5,4.823V122.51a4.914,4.914,0,0,1-5,4.823H5a4.914,4.914,0,0,1-5-4.823V4.823A4.914,4.914,0,0,1,5,0Z" transform="translate(861.91 423.55)" fill="#f7cda3"/>
      </g>
      <g id="Component_635_1" data-name="Component 635 – 1" transform="translate(1531.098 918.035)" clip-path="url(#clip-path-2)">
        <ellipse id="Ellipse_85-3" data-name="Ellipse 85" cx="7" cy="8.5" rx="7" ry="8.5" transform="translate(5.672 5.965)" fill="#fff"/>
        <path id="warning-3" data-name="warning" d="M12.921,18.693V16.11a.434.434,0,0,0-.129-.319.418.418,0,0,0-.306-.129H9.876a.418.418,0,0,0-.306.129.434.434,0,0,0-.129.319v2.583a.434.434,0,0,0,.129.319.418.418,0,0,0,.306.129h2.61a.418.418,0,0,0,.306-.129A.434.434,0,0,0,12.921,18.693Zm-.027-5.084.245-6.24A.3.3,0,0,0,13,7.11a.525.525,0,0,0-.326-.15H9.685a.525.525,0,0,0-.326.15.325.325,0,0,0-.136.285l.231,6.213a.261.261,0,0,0,.136.224.586.586,0,0,0,.326.088h2.515a.553.553,0,0,0,.319-.088A.3.3,0,0,0,12.894,13.608ZM12.7.911,23.144,20.052a1.622,1.622,0,0,1-.027,1.713,1.739,1.739,0,0,1-1.5.856H.74a1.7,1.7,0,0,1-.863-.231,1.708,1.708,0,0,1-.632-.625,1.622,1.622,0,0,1-.027-1.713L9.658.911A1.736,1.736,0,0,1,10.3.245a1.718,1.718,0,0,1,1.767,0A1.736,1.736,0,0,1,12.7.911Z" transform="translate(1.014)" fill="#ec871f"/>
      </g>
      <g id="Group_466-2" data-name="Group 466" transform="translate(7)">
        <path id="caret-right-6" data-name="caret-right" d="M582.066,389.392a.648.648,0,0,1-.2.474l-4.718,4.718A.674.674,0,0,1,576,394.11v-9.436a.67.67,0,0,1,1.148-.474l4.718,4.718A.648.648,0,0,1,582.066,389.392Z" transform="translate(2099.566 1401.938) rotate(180)" fill="#ec871f"/>
        <text id="Open-2" data-name="Open" transform="translate(1527 1016)" fill="#ec871f" font-size="11" font-family="Open Sans" font-weight="700"><tspan x="0" y="0">Open</tspan></text>
      </g>
    </g>
    <g id="Group_479" data-name="Group 479" transform="translate(-657.09 -770.453)">
      <g transform="matrix(1, 0, 0, 1, 657.09, 770.45)" filter="url(#Path_290-3)">
        <path id="Path_290-8" data-name="Path 290" d="M5,0H44a4.914,4.914,0,0,1,5,4.823V122.51a4.914,4.914,0,0,1-5,4.823H5a4.914,4.914,0,0,1-5-4.823V4.823A4.914,4.914,0,0,1,5,0Z" transform="translate(861.91 135.55)" fill="#f7cda3"/>
      </g>
      <g id="Component_635_2" data-name="Component 635 – 2" transform="translate(1531.098 918.035)" clip-path="url(#clip-path-2)">
        <ellipse id="Ellipse_85-4" data-name="Ellipse 85" cx="7" cy="8.5" rx="7" ry="8.5" transform="translate(5.672 5.965)" fill="#fff"/>
        <path id="warning-4" data-name="warning" d="M12.921,18.693V16.11a.434.434,0,0,0-.129-.319.418.418,0,0,0-.306-.129H9.876a.418.418,0,0,0-.306.129.434.434,0,0,0-.129.319v2.583a.434.434,0,0,0,.129.319.418.418,0,0,0,.306.129h2.61a.418.418,0,0,0,.306-.129A.434.434,0,0,0,12.921,18.693Zm-.027-5.084.245-6.24A.3.3,0,0,0,13,7.11a.525.525,0,0,0-.326-.15H9.685a.525.525,0,0,0-.326.15.325.325,0,0,0-.136.285l.231,6.213a.261.261,0,0,0,.136.224.586.586,0,0,0,.326.088h2.515a.553.553,0,0,0,.319-.088A.3.3,0,0,0,12.894,13.608ZM12.7.911,23.144,20.052a1.622,1.622,0,0,1-.027,1.713,1.739,1.739,0,0,1-1.5.856H.74a1.7,1.7,0,0,1-.863-.231,1.708,1.708,0,0,1-.632-.625,1.622,1.622,0,0,1-.027-1.713L9.658.911A1.736,1.736,0,0,1,10.3.245a1.718,1.718,0,0,1,1.767,0A1.736,1.736,0,0,1,12.7.911Z" transform="translate(1.014)" fill="#ec871f"/>
      </g>
      <g id="Group_466-3" data-name="Group 466" transform="translate(7)">
        <path id="caret-right-7" data-name="caret-right" d="M582.066,389.392a.648.648,0,0,1-.2.474l-4.718,4.718A.674.674,0,0,1,576,394.11v-9.436a.67.67,0,0,1,1.148-.474l4.718,4.718A.648.648,0,0,1,582.066,389.392Z" transform="translate(2099.566 1401.938) rotate(180)" fill="#ec871f"/>
        <text id="Open-3" data-name="Open" transform="translate(1527 1016)" fill="#ec871f" font-size="11" font-family="Open Sans" font-weight="700"><tspan x="0" y="0">Open</tspan></text>
      </g>
    </g>
    <g id="Group_480" data-name="Group 480" transform="translate(-1183 -407.641)">
      <g transform="matrix(1, 0, 0, 1, 1183, 407.64)" filter="url(#Path_268-5)">
        <path id="Path_268-10" data-name="Path 268" d="M3.611,0H329.33c1.994,0,3.611,2.171,3.611,7.105V97.395c0,4.935-1.617,7.105-3.611,7.105H3.611C1.617,104.5,0,102.329,0,97.395V7.105C0,2.171,1.617,0,3.611,0Z" transform="translate(46.06 417.86)" fill="#f7cda3"/>
      </g>
      <text id="_1_Adjustment_s_already_performed_on_this_Reference_Transaction_totaling_85.00." data-name="1 Adjustment(s) already performed on this Reference Transaction totaling $85.00." transform="translate(1275 840)" font-size="16" font-family="Open Sans" font-weight="700"><tspan x="0" y="17">1 Adjustment(s) already </tspan><tspan x="0" y="39">performed on this Reference </tspan><tspan x="0" y="61">Transaction totaling $85.00.</tspan></text>
      <path id="caret-right-8" data-name="caret-right" d="M582.066,389.392a.648.648,0,0,1-.2.474l-4.718,4.718A.674.674,0,0,1,576,394.11v-9.436a.67.67,0,0,1,1.148-.474l4.718,4.718A.648.648,0,0,1,582.066,389.392Z" transform="translate(966.5 519.153)" fill="#ec871f"/>
      <text id="Close-5" data-name="Close" transform="translate(1509 912)" fill="#ec871f" font-size="11" font-family="Open Sans" font-weight="700"><tspan x="0" y="0">Close</tspan></text>
      <g id="Component_635_5" data-name="Component 635 – 5" transform="translate(1244.098 840.035)" clip-path="url(#clip-path-2)">
        <ellipse id="Ellipse_85-5" data-name="Ellipse 85" cx="7" cy="8.5" rx="7" ry="8.5" transform="translate(5.672 5.965)" fill="#fff"/>
        <path id="warning-5" data-name="warning" d="M12.921,18.693V16.11a.434.434,0,0,0-.129-.319.418.418,0,0,0-.306-.129H9.876a.418.418,0,0,0-.306.129.434.434,0,0,0-.129.319v2.583a.434.434,0,0,0,.129.319.418.418,0,0,0,.306.129h2.61a.418.418,0,0,0,.306-.129A.434.434,0,0,0,12.921,18.693Zm-.027-5.084.245-6.24A.3.3,0,0,0,13,7.11a.525.525,0,0,0-.326-.15H9.685a.525.525,0,0,0-.326.15.325.325,0,0,0-.136.285l.231,6.213a.261.261,0,0,0,.136.224.586.586,0,0,0,.326.088h2.515a.553.553,0,0,0,.319-.088A.3.3,0,0,0,12.894,13.608ZM12.7.911,23.144,20.052a1.622,1.622,0,0,1-.027,1.713,1.739,1.739,0,0,1-1.5.856H.74a1.7,1.7,0,0,1-.863-.231,1.708,1.708,0,0,1-.632-.625,1.622,1.622,0,0,1-.027-1.713L9.658.911A1.736,1.736,0,0,1,10.3.245a1.718,1.718,0,0,1,1.767,0A1.736,1.736,0,0,1,12.7.911Z" transform="translate(1.014)" fill="#ec871f"/>
      </g>
    </g>
    <g id="Group_481" data-name="Group 481" transform="translate(-1117 -487.641)">
      <g transform="matrix(1, 0, 0, 1, 1117, 487.64)" filter="url(#Path_290-4)">
        <path id="Path_290-9" data-name="Path 290" d="M5,0H44a4.914,4.914,0,0,1,5,4.823V122.51a4.914,4.914,0,0,1-5,4.823H5a4.914,4.914,0,0,1-5-4.823V4.823A4.914,4.914,0,0,1,5,0Z" transform="translate(402 418.36)" fill="#f7cda3"/>
      </g>
      <g id="Component_635_3" data-name="Component 635 – 3" transform="translate(1531.098 918.035)" clip-path="url(#clip-path-2)">
        <ellipse id="Ellipse_85-6" data-name="Ellipse 85" cx="7" cy="8.5" rx="7" ry="8.5" transform="translate(5.672 5.965)" fill="#fff"/>
        <path id="warning-6" data-name="warning" d="M12.921,18.693V16.11a.434.434,0,0,0-.129-.319.418.418,0,0,0-.306-.129H9.876a.418.418,0,0,0-.306.129.434.434,0,0,0-.129.319v2.583a.434.434,0,0,0,.129.319.418.418,0,0,0,.306.129h2.61a.418.418,0,0,0,.306-.129A.434.434,0,0,0,12.921,18.693Zm-.027-5.084.245-6.24A.3.3,0,0,0,13,7.11a.525.525,0,0,0-.326-.15H9.685a.525.525,0,0,0-.326.15.325.325,0,0,0-.136.285l.231,6.213a.261.261,0,0,0,.136.224.586.586,0,0,0,.326.088h2.515a.553.553,0,0,0,.319-.088A.3.3,0,0,0,12.894,13.608ZM12.7.911,23.144,20.052a1.622,1.622,0,0,1-.027,1.713,1.739,1.739,0,0,1-1.5.856H.74a1.7,1.7,0,0,1-.863-.231,1.708,1.708,0,0,1-.632-.625,1.622,1.622,0,0,1-.027-1.713L9.658.911A1.736,1.736,0,0,1,10.3.245a1.718,1.718,0,0,1,1.767,0A1.736,1.736,0,0,1,12.7.911Z" transform="translate(1.014)" fill="#ec871f"/>
      </g>
      <g id="Group_466-4" data-name="Group 466" transform="translate(7)">
        <path id="caret-right-9" data-name="caret-right" d="M582.066,389.392a.648.648,0,0,1-.2.474l-4.718,4.718A.674.674,0,0,1,576,394.11v-9.436a.67.67,0,0,1,1.148-.474l4.718,4.718A.648.648,0,0,1,582.066,389.392Z" transform="translate(2099.566 1401.938) rotate(180)" fill="#ec871f"/>
        <text id="Open-4" data-name="Open" transform="translate(1527 1016)" fill="#ec871f" font-size="11" font-family="Open Sans" font-weight="700"><tspan x="0" y="0">Open</tspan></text>
      </g>
    </g>
    <text id="First_Name-7" data-name="First Name" transform="translate(46.059 46.547)" fill="#939393" font-size="22" font-family="OpenSans-Semibold, Open Sans" font-weight="600"><tspan x="0" y="24">Alert: Message - No action</tspan></text>
    <text id="First_Name-8" data-name="First Name" transform="translate(500.969 85.547)" fill="#939393" font-size="22" font-family="OpenSans-Semibold, Open Sans" font-weight="600"><tspan x="0" y="24">TBG</tspan></text>
    <text id="First_Name-9" data-name="First Name" transform="translate(975.969 46.547)" fill="#939393" font-size="22" font-family="OpenSans-Semibold, Open Sans" font-weight="600"><tspan x="0" y="24">Alert: Task - Has actions</tspan></text>
    <g id="Group_482" data-name="Group 482" transform="translate(-196.18 -1355.453)">
      <path id="Path_268-11" data-name="Path 268" d="M4.306,0H392.725c2.378,0,4.306,2.8,4.306,9.179V125.821c0,6.375-1.928,9.179-4.306,9.179H4.306C1.928,135,0,132.2,0,125.821V9.179C0,2.8,1.928,0,4.306,0Z" transform="translate(1167.059 1495)" fill="#f7cda3"/>
      <g id="Group_438" data-name="Group 438" transform="translate(6319 -20201)">
        <g id="Group_391-4" data-name="Group 391" transform="translate(-3 55)">
          <text id="First_Name-10" data-name="First Name" transform="translate(-5093.851 21682.676)" font-size="14" font-family="OpenSans, Open Sans"><tspan x="0" y="15">What is this person’s SSN please?</tspan></text>
        </g>
      </g>
      <text id="Task:_Verify_SSN" data-name="Task: Verify SSN" transform="translate(1221 1512)" font-size="16" font-family="Open Sans" font-weight="700"><tspan x="0" y="17">Task: Verify SSN</tspan></text>
      <g id="Component_617_2" data-name="Component 617 – 2" transform="translate(1188.328 1512.035)" clip-path="url(#clip-path-2)">
        <ellipse id="Ellipse_85-7" data-name="Ellipse 85" cx="7" cy="8.5" rx="7" ry="8.5" transform="translate(5.672 5.965)" fill="#fff"/>
        <path id="warning-7" data-name="warning" d="M12.921,18.693V16.11a.434.434,0,0,0-.129-.319.418.418,0,0,0-.306-.129H9.876a.418.418,0,0,0-.306.129.434.434,0,0,0-.129.319v2.583a.434.434,0,0,0,.129.319.418.418,0,0,0,.306.129h2.61a.418.418,0,0,0,.306-.129A.434.434,0,0,0,12.921,18.693Zm-.027-5.084.245-6.24A.3.3,0,0,0,13,7.11a.525.525,0,0,0-.326-.15H9.685a.525.525,0,0,0-.326.15.325.325,0,0,0-.136.285l.231,6.213a.261.261,0,0,0,.136.224.586.586,0,0,0,.326.088h2.515a.553.553,0,0,0,.319-.088A.3.3,0,0,0,12.894,13.608ZM12.7.911,23.144,20.052a1.622,1.622,0,0,1-.027,1.713,1.739,1.739,0,0,1-1.5.856H.74a1.7,1.7,0,0,1-.863-.231,1.708,1.708,0,0,1-.632-.625,1.622,1.622,0,0,1-.027-1.713L9.658.911A1.736,1.736,0,0,1,10.3.245a1.718,1.718,0,0,1,1.767,0A1.736,1.736,0,0,1,12.7.911Z" transform="translate(1.014)" fill="#ec871f"/>
      </g>
      <g id="Group_472-2" data-name="Group 472" transform="translate(6319 -20147)">
        <g id="Group_391-5" data-name="Group 391" transform="translate(-3 55)">
          <text id="First_Name-11" data-name="First Name" transform="translate(-5093.851 21682.676)" fill="#ff0606" font-size="14" font-family="Open Sans" font-weight="700"><tspan x="0" y="15">Please press &apos;complete&apos; after investigation</tspan></text>
        </g>
      </g>
      <g id="Component_620_2" data-name="Component 620 – 2" transform="translate(1220.111 1557.676)" clip-path="url(#clip-path)">
        <path id="Path_267-4" data-name="Path 267" d="M2.954,0h89.64a3.067,3.067,0,0,1,2.954,3.168v19.8a3.067,3.067,0,0,1-2.954,3.168H2.954A3.067,3.067,0,0,1,0,22.969V3.168A3.067,3.067,0,0,1,2.954,0Z" fill="#ec871f" opacity="0.6"/>
        <text id="First_Name-12" data-name="First Name" transform="translate(9.037 4)" fill="#fff" font-size="12" font-family="Open Sans" font-weight="700"><tspan x="10.234" y="13">Complete</tspan></text>
      </g>
    </g>
    <g id="Group_483" data-name="Group 483" transform="translate(-191.18 -1187.453)">
      <path id="Path_268-12" data-name="Path 268" d="M4.306,0H392.725c2.378,0,4.306,2.361,4.306,7.729v98.209c0,5.367-1.928,7.729-4.306,7.729H4.306c-2.378,0-4.306-2.361-4.306-7.729V7.729C0,2.361,1.928,0,4.306,0Z" transform="translate(1167.059 1495)" fill="#f7cda3"/>
      <g id="Group_438-2" data-name="Group 438" transform="translate(6319 -20201)">
        <g id="Group_391-6" data-name="Group 391" transform="translate(-3 55)">
          <text id="First_Name-13" data-name="First Name" transform="translate(-5093.851 21682.676)" font-size="14" font-family="OpenSans, Open Sans"><tspan x="0" y="15">What is this person’s SSN please?</tspan></text>
        </g>
      </g>
      <text id="Task:_Verify_SSN-2" data-name="Task: Verify SSN" transform="translate(1221 1512)" font-size="16" font-family="Open Sans" font-weight="700"><tspan x="0" y="17">Task: Verify SSN</tspan></text>
      <g id="Component_617_3" data-name="Component 617 – 3" transform="translate(1188.328 1512.035)" clip-path="url(#clip-path-2)">
        <ellipse id="Ellipse_85-8" data-name="Ellipse 85" cx="7" cy="8.5" rx="7" ry="8.5" transform="translate(5.672 5.965)" fill="#fff"/>
        <path id="warning-8" data-name="warning" d="M12.921,18.693V16.11a.434.434,0,0,0-.129-.319.418.418,0,0,0-.306-.129H9.876a.418.418,0,0,0-.306.129.434.434,0,0,0-.129.319v2.583a.434.434,0,0,0,.129.319.418.418,0,0,0,.306.129h2.61a.418.418,0,0,0,.306-.129A.434.434,0,0,0,12.921,18.693Zm-.027-5.084.245-6.24A.3.3,0,0,0,13,7.11a.525.525,0,0,0-.326-.15H9.685a.525.525,0,0,0-.326.15.325.325,0,0,0-.136.285l.231,6.213a.261.261,0,0,0,.136.224.586.586,0,0,0,.326.088h2.515a.553.553,0,0,0,.319-.088A.3.3,0,0,0,12.894,13.608ZM12.7.911,23.144,20.052a1.622,1.622,0,0,1-.027,1.713,1.739,1.739,0,0,1-1.5.856H.74a1.7,1.7,0,0,1-.863-.231,1.708,1.708,0,0,1-.632-.625,1.622,1.622,0,0,1-.027-1.713L9.658.911A1.736,1.736,0,0,1,10.3.245a1.718,1.718,0,0,1,1.767,0A1.736,1.736,0,0,1,12.7.911Z" transform="translate(1.014)" fill="#ec871f"/>
      </g>
      <g id="Component_620_3" data-name="Component 620 – 3" transform="translate(1220.111 1564.676)" clip-path="url(#clip-path)">
        <path id="Path_267-5" data-name="Path 267" d="M2.954,0h89.64a3.067,3.067,0,0,1,2.954,3.168v19.8a3.067,3.067,0,0,1-2.954,3.168H2.954A3.067,3.067,0,0,1,0,22.969V3.168A3.067,3.067,0,0,1,2.954,0Z" fill="#ec871f" opacity="0.6"/>
        <text id="First_Name-14" data-name="First Name" transform="translate(9.037 4)" fill="#fff" font-size="12" font-family="Open Sans" font-weight="700"><tspan x="10.234" y="13">Complete</tspan></text>
      </g>
    </g>
    <path id="Path_291" data-name="Path 291" d="M4.306,0H392.725c2.378,0,4.306,2.387,4.306,7.813v99.28c0,5.426-1.928,7.813-4.306,7.813H4.306c-2.378,0-4.306-2.387-4.306-7.813V7.813C0,2.387,1.928,0,4.306,0Z" transform="translate(975.879 591.964)" fill="#f7cda3"/>
    <g id="Group_484" data-name="Group 484" transform="translate(6126.82 -21105.037)">
      <g id="Group_391-7" data-name="Group 391" transform="translate(-5096.851 21737.676)">
        <text id="First_Name-15" data-name="First Name" font-size="14" font-family="OpenSans, Open Sans"><tspan x="0" y="15">What is this person’s Bank Phone number?</tspan></text>
      </g>
    </g>
    <text id="Task:_Verify_Bank_Phone" data-name="Task: Verify Bank Phone" transform="translate(1028.82 607.964)" font-size="16" font-family="Open Sans" font-weight="700"><tspan x="0" y="17">Task: Verify Bank Phone</tspan></text>
    <path id="Path_292" data-name="Path 292" d="M4.306,0H392.725c2.378,0,4.306,2.387,4.306,7.813v99.28c0,5.426-1.928,7.813-4.306,7.813H4.306c-2.378,0-4.306-2.387-4.306-7.813V7.813C0,2.387,1.928,0,4.306,0Z" transform="translate(975.879 448.25)" fill="#f7cda3"/>
    <g id="Group_485" data-name="Group 485" transform="translate(6126.82 -21248.75)">
      <g id="Group_391-8" data-name="Group 391" transform="translate(-5096.851 21737.676)">
        <text id="First_Name-16" data-name="First Name" transform="translate(0 1)" font-size="14" font-family="OpenSans, Open Sans"><tspan x="0" y="15">Verify address, AVS no match</tspan></text>
      </g>
    </g>
    <g id="Component_620_4" data-name="Component 620 – 4" transform="translate(1028.932 515.926)" clip-path="url(#clip-path)">
      <path id="Path_267-6" data-name="Path 267" d="M2.954,0h89.64a3.067,3.067,0,0,1,2.954,3.168v19.8a3.067,3.067,0,0,1-2.954,3.168H2.954A3.067,3.067,0,0,1,0,22.969V3.168A3.067,3.067,0,0,1,2.954,0Z" fill="#ec871f" opacity="0.6"/>
      <text id="First_Name-17" data-name="First Name" transform="translate(9.037 4)" fill="#fff" font-size="12" font-family="Open Sans" font-weight="700"><tspan x="10.234" y="13">Complete</tspan></text>
    </g>
    <text id="Task:_Verify_Address_" data-name="Task: Verify Address " transform="translate(1028.82 464.25)" font-size="16" font-family="Open Sans" font-weight="700"><tspan x="0" y="17">Task: Verify Address </tspan></text>
    <g id="Component_617_4" data-name="Component 617 – 4" transform="translate(997.148 465.285)" clip-path="url(#clip-path-2)">
      <ellipse id="Ellipse_85-9" data-name="Ellipse 85" cx="7" cy="8.5" rx="7" ry="8.5" transform="translate(5.672 5.965)" fill="#fff"/>
      <path id="warning-9" data-name="warning" d="M12.921,18.693V16.11a.434.434,0,0,0-.129-.319.418.418,0,0,0-.306-.129H9.876a.418.418,0,0,0-.306.129.434.434,0,0,0-.129.319v2.583a.434.434,0,0,0,.129.319.418.418,0,0,0,.306.129h2.61a.418.418,0,0,0,.306-.129A.434.434,0,0,0,12.921,18.693Zm-.027-5.084.245-6.24A.3.3,0,0,0,13,7.11a.525.525,0,0,0-.326-.15H9.685a.525.525,0,0,0-.326.15.325.325,0,0,0-.136.285l.231,6.213a.261.261,0,0,0,.136.224.586.586,0,0,0,.326.088h2.515a.553.553,0,0,0,.319-.088A.3.3,0,0,0,12.894,13.608ZM12.7.911,23.144,20.052a1.622,1.622,0,0,1-.027,1.713,1.739,1.739,0,0,1-1.5.856H.74a1.7,1.7,0,0,1-.863-.231,1.708,1.708,0,0,1-.632-.625,1.622,1.622,0,0,1-.027-1.713L9.658.911A1.736,1.736,0,0,1,10.3.245a1.718,1.718,0,0,1,1.767,0A1.736,1.736,0,0,1,12.7.911Z" transform="translate(1.014)" fill="#ec871f"/>
    </g>
    <g id="Component_617_5" data-name="Component 617 – 5" transform="translate(997.148 607.999)" clip-path="url(#clip-path-2)">
      <ellipse id="Ellipse_85-10" data-name="Ellipse 85" cx="7" cy="8.5" rx="7" ry="8.5" transform="translate(5.672 5.965)" fill="#fff"/>
      <path id="warning-10" data-name="warning" d="M12.921,18.693V16.11a.434.434,0,0,0-.129-.319.418.418,0,0,0-.306-.129H9.876a.418.418,0,0,0-.306.129.434.434,0,0,0-.129.319v2.583a.434.434,0,0,0,.129.319.418.418,0,0,0,.306.129h2.61a.418.418,0,0,0,.306-.129A.434.434,0,0,0,12.921,18.693Zm-.027-5.084.245-6.24A.3.3,0,0,0,13,7.11a.525.525,0,0,0-.326-.15H9.685a.525.525,0,0,0-.326.15.325.325,0,0,0-.136.285l.231,6.213a.261.261,0,0,0,.136.224.586.586,0,0,0,.326.088h2.515a.553.553,0,0,0,.319-.088A.3.3,0,0,0,12.894,13.608ZM12.7.911,23.144,20.052a1.622,1.622,0,0,1-.027,1.713,1.739,1.739,0,0,1-1.5.856H.74a1.7,1.7,0,0,1-.863-.231,1.708,1.708,0,0,1-.632-.625,1.622,1.622,0,0,1-.027-1.713L9.658.911A1.736,1.736,0,0,1,10.3.245a1.718,1.718,0,0,1,1.767,0A1.736,1.736,0,0,1,12.7.911Z" transform="translate(1.014)" fill="#ec871f"/>
    </g>
    <g id="Component_620_5" data-name="Component 620 – 5" transform="translate(1028.932 659.639)" clip-path="url(#clip-path)">
      <path id="Path_267-7" data-name="Path 267" d="M2.954,0h89.64a3.067,3.067,0,0,1,2.954,3.168v19.8a3.067,3.067,0,0,1-2.954,3.168H2.954A3.067,3.067,0,0,1,0,22.969V3.168A3.067,3.067,0,0,1,2.954,0Z" fill="#ec871f" opacity="0.6"/>
      <text id="First_Name-18" data-name="First Name" transform="translate(9.037 4)" fill="#fff" font-size="12" font-family="Open Sans" font-weight="700"><tspan x="10.234" y="13">Complete</tspan></text>
    </g>
    <text id="First_Name-19" data-name="First Name" transform="translate(975.969 85.547)" fill="#939393" font-size="22" font-family="OpenSans-Semibold, Open Sans" font-weight="600"><tspan x="0" y="24">New Sale</tspan></text>
    <text id="First_Name-20" data-name="First Name" transform="translate(500.969 46.547)" fill="#939393" font-size="22" font-family="OpenSans-Semibold, Open Sans" font-weight="600"><tspan x="0" y="24">Alert: Memo</tspan></text>
    <g id="Group_486" data-name="Group 486" transform="translate(-657.09 -626.453)">
      <g transform="matrix(1, 0, 0, 1, 657.09, 626.45)" filter="url(#Path_290-5)">
        <path id="Path_290-10" data-name="Path 290" d="M5,0H44a4.914,4.914,0,0,1,5,4.823V122.51a4.914,4.914,0,0,1-5,4.823H5a4.914,4.914,0,0,1-5-4.823V4.823A4.914,4.914,0,0,1,5,0Z" transform="translate(861.91 279.55)" fill="#f7cda3"/>
      </g>
      <g id="Component_635_4" data-name="Component 635 – 4" transform="translate(1531.098 918.035)" clip-path="url(#clip-path-2)">
        <ellipse id="Ellipse_85-11" data-name="Ellipse 85" cx="7" cy="8.5" rx="7" ry="8.5" transform="translate(5.672 5.965)" fill="#fff"/>
        <path id="warning-11" data-name="warning" d="M12.921,18.693V16.11a.434.434,0,0,0-.129-.319.418.418,0,0,0-.306-.129H9.876a.418.418,0,0,0-.306.129.434.434,0,0,0-.129.319v2.583a.434.434,0,0,0,.129.319.418.418,0,0,0,.306.129h2.61a.418.418,0,0,0,.306-.129A.434.434,0,0,0,12.921,18.693Zm-.027-5.084.245-6.24A.3.3,0,0,0,13,7.11a.525.525,0,0,0-.326-.15H9.685a.525.525,0,0,0-.326.15.325.325,0,0,0-.136.285l.231,6.213a.261.261,0,0,0,.136.224.586.586,0,0,0,.326.088h2.515a.553.553,0,0,0,.319-.088A.3.3,0,0,0,12.894,13.608ZM12.7.911,23.144,20.052a1.622,1.622,0,0,1-.027,1.713,1.739,1.739,0,0,1-1.5.856H.74a1.7,1.7,0,0,1-.863-.231,1.708,1.708,0,0,1-.632-.625,1.622,1.622,0,0,1-.027-1.713L9.658.911A1.736,1.736,0,0,1,10.3.245a1.718,1.718,0,0,1,1.767,0A1.736,1.736,0,0,1,12.7.911Z" transform="translate(1.014)" fill="#ec871f"/>
      </g>
      <g id="Group_466-5" data-name="Group 466" transform="translate(7)">
        <path id="caret-right-10" data-name="caret-right" d="M582.066,389.392a.648.648,0,0,1-.2.474l-4.718,4.718A.674.674,0,0,1,576,394.11v-9.436a.67.67,0,0,1,1.148-.474l4.718,4.718A.648.648,0,0,1,582.066,389.392Z" transform="translate(2099.566 1401.938) rotate(180)" fill="#ec871f"/>
        <text id="Open-5" data-name="Open" transform="translate(1527 1016)" fill="#ec871f" font-size="11" font-family="Open Sans" font-weight="700"><tspan x="0" y="0">Open</tspan></text>
      </g>
    </g>
    <text id="First_Name-21" data-name="First Name" transform="translate(46.059 85.547)" fill="#939393" font-size="22" font-family="OpenSans-Semibold, Open Sans" font-weight="600"><tspan x="0" y="24">Adjustment </tspan></text>
    <g id="Group_487" data-name="Group 487" transform="translate(-3620 -184.953)">
      <path id="Path_487-2" data-name="Path 487" d="M4.306,0H392.725c2.378,0,4.306,2.387,4.306,7.813v99.28c0,5.426-1.928,7.813-4.306,7.813H4.306c-2.378,0-4.306-2.387-4.306-7.813V7.813C0,2.387,1.928,0,4.306,0Z" transform="translate(3666.059 320)" fill="#f7cda3"/>
      <g id="Group_865-2" data-name="Group 865" transform="translate(8817 -21377)">
        <g id="Group_391-9" data-name="Group 391" transform="translate(-5096.851 21737.676)">
          <text id="First_Name-22" data-name="First Name" font-size="14" font-family="OpenSans, Open Sans"><tspan x="0" y="15">Something goes here about management memo.</tspan></text>
        </g>
      </g>
      <g id="Component_620_6" data-name="Component 620 – 6" transform="translate(3719.111 387.676)" clip-path="url(#clip-path)">
        <path id="Path_267-8" data-name="Path 267" d="M2.954,0h89.64a3.067,3.067,0,0,1,2.954,3.168v19.8a3.067,3.067,0,0,1-2.954,3.168H2.954A3.067,3.067,0,0,1,0,22.969V3.168A3.067,3.067,0,0,1,2.954,0Z" fill="#ec871f" opacity="0.6"/>
        <text id="First_Name-23" data-name="First Name" transform="translate(9.037 4)" fill="#fff" font-size="12" font-family="Open Sans" font-weight="700"><tspan x="10.234" y="13">Complete</tspan></text>
      </g>
      <text id="Management_Memo" data-name="Management Memo" transform="translate(3719 336)" font-size="16" font-family="Open Sans" font-weight="700"><tspan x="0" y="17">Management Memo</tspan></text>
      <g id="Component_617_6" data-name="Component 617 – 6" transform="translate(3687.328 337.035)" clip-path="url(#clip-path-2)">
        <ellipse id="Ellipse_85-12" data-name="Ellipse 85" cx="7" cy="8.5" rx="7" ry="8.5" transform="translate(5.672 5.965)" fill="#fff"/>
        <path id="warning-12" data-name="warning" d="M12.921,18.693V16.11a.434.434,0,0,0-.129-.319.418.418,0,0,0-.306-.129H9.876a.418.418,0,0,0-.306.129.434.434,0,0,0-.129.319v2.583a.434.434,0,0,0,.129.319.418.418,0,0,0,.306.129h2.61a.418.418,0,0,0,.306-.129A.434.434,0,0,0,12.921,18.693Zm-.027-5.084.245-6.24A.3.3,0,0,0,13,7.11a.525.525,0,0,0-.326-.15H9.685a.525.525,0,0,0-.326.15.325.325,0,0,0-.136.285l.231,6.213a.261.261,0,0,0,.136.224.586.586,0,0,0,.326.088h2.515a.553.553,0,0,0,.319-.088A.3.3,0,0,0,12.894,13.608ZM12.7.911,23.144,20.052a1.622,1.622,0,0,1-.027,1.713,1.739,1.739,0,0,1-1.5.856H.74a1.7,1.7,0,0,1-.863-.231,1.708,1.708,0,0,1-.632-.625,1.622,1.622,0,0,1-.027-1.713L9.658.911A1.736,1.736,0,0,1,10.3.245a1.718,1.718,0,0,1,1.767,0A1.736,1.736,0,0,1,12.7.911Z" transform="translate(1.014)" fill="#ec871f"/>
      </g>
    </g>
    <g id="Component_620_7" data-name="Component 620 – 7" transform="translate(975.969 735.109)" clip-path="url(#clip-path)">
      <path id="Path_267-9" data-name="Path 267" d="M2.954,0h89.64a3.067,3.067,0,0,1,2.954,3.168v19.8a3.067,3.067,0,0,1-2.954,3.168H2.954A3.067,3.067,0,0,1,0,22.969V3.168A3.067,3.067,0,0,1,2.954,0Z" fill="#ec871f" opacity="0.6"/>
      <text id="First_Name-24" data-name="First Name" transform="translate(9.037 4)" fill="#fff" font-size="12" font-family="Open Sans" font-weight="700"><tspan x="19.292" y="13">Closed</tspan></text>
    </g>
    <g id="Group_489" data-name="Group 489" transform="translate(-875.09 -828.453)">
      <g id="Group_872" data-name="Group 872" transform="translate(-2290 1363)">
        <path id="Path_487-3" data-name="Path 487" d="M4.306,0H392.725c2.378,0,4.306,2.387,4.306,7.813v99.28c0,5.426-1.928,7.813-4.306,7.813H4.306c-2.378,0-4.306-2.387-4.306-7.813V7.813C0,2.387,1.928,0,4.306,0Z" transform="translate(3666.059 320)" fill="#f7cda3"/>
        <g id="Group_865-3" data-name="Group 865" transform="translate(8817 -21377)">
          <g id="Group_391-10" data-name="Group 391" transform="translate(-5096.851 21737.676)">
            <text id="First_Name-25" data-name="First Name" font-size="14" font-family="OpenSans, Open Sans"><tspan x="0" y="15">Verify address, AVS no match</tspan></text>
          </g>
        </g>
        <g id="Component_620_9" data-name="Component 620 – 9" transform="translate(3719.111 387.676)" clip-path="url(#clip-path)">
          <path id="Path_267-10" data-name="Path 267" d="M2.954,0h89.64a3.067,3.067,0,0,1,2.954,3.168v19.8a3.067,3.067,0,0,1-2.954,3.168H2.954A3.067,3.067,0,0,1,0,22.969V3.168A3.067,3.067,0,0,1,2.954,0Z" fill="#ec871f" opacity="0.6"/>
          <text id="First_Name-26" data-name="First Name" transform="translate(9.037 4)" fill="#fff" font-size="12" font-family="Open Sans" font-weight="700"><tspan x="10.234" y="13">Complete</tspan></text>
        </g>
        <text id="Time_Back_Guarantee-2" data-name="Time Back Guarantee" transform="translate(3719 336)" font-size="16" font-family="Open Sans" font-weight="700"><tspan x="0" y="17">Time Back Guarantee</tspan></text>
        <g id="Component_617_8" data-name="Component 617 – 8" transform="translate(3687.328 337.035)" clip-path="url(#clip-path-2)">
          <ellipse id="Ellipse_85-13" data-name="Ellipse 85" cx="7" cy="8.5" rx="7" ry="8.5" transform="translate(5.672 5.965)" fill="#fff"/>
          <path id="warning-13" data-name="warning" d="M12.921,18.693V16.11a.434.434,0,0,0-.129-.319.418.418,0,0,0-.306-.129H9.876a.418.418,0,0,0-.306.129.434.434,0,0,0-.129.319v2.583a.434.434,0,0,0,.129.319.418.418,0,0,0,.306.129h2.61a.418.418,0,0,0,.306-.129A.434.434,0,0,0,12.921,18.693Zm-.027-5.084.245-6.24A.3.3,0,0,0,13,7.11a.525.525,0,0,0-.326-.15H9.685a.525.525,0,0,0-.326.15.325.325,0,0,0-.136.285l.231,6.213a.261.261,0,0,0,.136.224.586.586,0,0,0,.326.088h2.515a.553.553,0,0,0,.319-.088A.3.3,0,0,0,12.894,13.608ZM12.7.911,23.144,20.052a1.622,1.622,0,0,1-.027,1.713,1.739,1.739,0,0,1-1.5.856H.74a1.7,1.7,0,0,1-.863-.231,1.708,1.708,0,0,1-.632-.625,1.622,1.622,0,0,1-.027-1.713L9.658.911A1.736,1.736,0,0,1,10.3.245a1.718,1.718,0,0,1,1.767,0A1.736,1.736,0,0,1,12.7.911Z" transform="translate(1.014)" fill="#ec871f"/>
        </g>
      </g>
      <g id="Group_874" data-name="Group 874" transform="translate(-2290 1230)">
        <path id="Path_487-4" data-name="Path 487" d="M4.306,0H392.725c2.378,0,4.306,2.387,4.306,7.813v99.28c0,5.426-1.928,7.813-4.306,7.813H4.306c-2.378,0-4.306-2.387-4.306-7.813V7.813C0,2.387,1.928,0,4.306,0Z" transform="translate(3666.059 320)" fill="#f7cda3"/>
        <g id="Group_865-4" data-name="Group 865" transform="translate(8817 -21377)">
          <g id="Group_391-11" data-name="Group 391" transform="translate(-5096.851 21737.676)">
            <text id="First_Name-27" data-name="First Name" font-size="14" font-family="OpenSans, Open Sans"><tspan x="0" y="15">Verify address, AVS no match</tspan></text>
          </g>
        </g>
        <g id="Component_620_10" data-name="Component 620 – 10" transform="translate(3719.111 387.676)" clip-path="url(#clip-path)">
          <path id="Path_267-11" data-name="Path 267" d="M2.954,0h89.64a3.067,3.067,0,0,1,2.954,3.168v19.8a3.067,3.067,0,0,1-2.954,3.168H2.954A3.067,3.067,0,0,1,0,22.969V3.168A3.067,3.067,0,0,1,2.954,0Z" fill="#ec871f" opacity="0.6"/>
          <text id="First_Name-28" data-name="First Name" transform="translate(9.037 4)" fill="#fff" font-size="12" font-family="Open Sans" font-weight="700"><tspan x="10.234" y="13">Complete</tspan></text>
        </g>
        <text id="Time_Back_Guarantee-3" data-name="Time Back Guarantee" transform="translate(3719 336)" font-size="16" font-family="Open Sans" font-weight="700"><tspan x="0" y="17">Time Back Guarantee</tspan></text>
        <g id="Component_617_9" data-name="Component 617 – 9" transform="translate(3687.328 337.035)" clip-path="url(#clip-path-2)">
          <ellipse id="Ellipse_85-14" data-name="Ellipse 85" cx="7" cy="8.5" rx="7" ry="8.5" transform="translate(5.672 5.965)" fill="#fff"/>
          <path id="warning-14" data-name="warning" d="M12.921,18.693V16.11a.434.434,0,0,0-.129-.319.418.418,0,0,0-.306-.129H9.876a.418.418,0,0,0-.306.129.434.434,0,0,0-.129.319v2.583a.434.434,0,0,0,.129.319.418.418,0,0,0,.306.129h2.61a.418.418,0,0,0,.306-.129A.434.434,0,0,0,12.921,18.693Zm-.027-5.084.245-6.24A.3.3,0,0,0,13,7.11a.525.525,0,0,0-.326-.15H9.685a.525.525,0,0,0-.326.15.325.325,0,0,0-.136.285l.231,6.213a.261.261,0,0,0,.136.224.586.586,0,0,0,.326.088h2.515a.553.553,0,0,0,.319-.088A.3.3,0,0,0,12.894,13.608ZM12.7.911,23.144,20.052a1.622,1.622,0,0,1-.027,1.713,1.739,1.739,0,0,1-1.5.856H.74a1.7,1.7,0,0,1-.863-.231,1.708,1.708,0,0,1-.632-.625,1.622,1.622,0,0,1-.027-1.713L9.658.911A1.736,1.736,0,0,1,10.3.245a1.718,1.718,0,0,1,1.767,0A1.736,1.736,0,0,1,12.7.911Z" transform="translate(1.014)" fill="#ec871f"/>
        </g>
      </g>
    </g>
    <g id="Component_635_7" data-name="Component 635 – 7" transform="translate(520.008 286.582)" clip-path="url(#clip-path-2)">
      <ellipse id="Ellipse_85-15" data-name="Ellipse 85" cx="7" cy="8.5" rx="7" ry="8.5" transform="translate(5.672 5.965)" fill="#fff"/>
      <path id="warning-15" data-name="warning" d="M12.921,18.693V16.11a.434.434,0,0,0-.129-.319.418.418,0,0,0-.306-.129H9.876a.418.418,0,0,0-.306.129.434.434,0,0,0-.129.319v2.583a.434.434,0,0,0,.129.319.418.418,0,0,0,.306.129h2.61a.418.418,0,0,0,.306-.129A.434.434,0,0,0,12.921,18.693Zm-.027-5.084.245-6.24A.3.3,0,0,0,13,7.11a.525.525,0,0,0-.326-.15H9.685a.525.525,0,0,0-.326.15.325.325,0,0,0-.136.285l.231,6.213a.261.261,0,0,0,.136.224.586.586,0,0,0,.326.088h2.515a.553.553,0,0,0,.319-.088A.3.3,0,0,0,12.894,13.608ZM12.7.911,23.144,20.052a1.622,1.622,0,0,1-.027,1.713,1.739,1.739,0,0,1-1.5.856H.74a1.7,1.7,0,0,1-.863-.231,1.708,1.708,0,0,1-.632-.625,1.622,1.622,0,0,1-.027-1.713L9.658.911A1.736,1.736,0,0,1,10.3.245a1.718,1.718,0,0,1,1.767,0A1.736,1.736,0,0,1,12.7.911Z" transform="translate(1.014)" fill="#ec871f"/>
    </g>
    <g id="Component_635_8" data-name="Component 635 – 8" transform="translate(520.008 414.582)" clip-path="url(#clip-path-2)">
      <ellipse id="Ellipse_85-16" data-name="Ellipse 85" cx="7" cy="8.5" rx="7" ry="8.5" transform="translate(5.672 5.965)" fill="#fff"/>
      <path id="warning-16" data-name="warning" d="M12.921,18.693V16.11a.434.434,0,0,0-.129-.319.418.418,0,0,0-.306-.129H9.876a.418.418,0,0,0-.306.129.434.434,0,0,0-.129.319v2.583a.434.434,0,0,0,.129.319.418.418,0,0,0,.306.129h2.61a.418.418,0,0,0,.306-.129A.434.434,0,0,0,12.921,18.693Zm-.027-5.084.245-6.24A.3.3,0,0,0,13,7.11a.525.525,0,0,0-.326-.15H9.685a.525.525,0,0,0-.326.15.325.325,0,0,0-.136.285l.231,6.213a.261.261,0,0,0,.136.224.586.586,0,0,0,.326.088h2.515a.553.553,0,0,0,.319-.088A.3.3,0,0,0,12.894,13.608ZM12.7.911,23.144,20.052a1.622,1.622,0,0,1-.027,1.713,1.739,1.739,0,0,1-1.5.856H.74a1.7,1.7,0,0,1-.863-.231,1.708,1.708,0,0,1-.632-.625,1.622,1.622,0,0,1-.027-1.713L9.658.911A1.736,1.736,0,0,1,10.3.245a1.718,1.718,0,0,1,1.767,0A1.736,1.736,0,0,1,12.7.911Z" transform="translate(1.014)" fill="#ec871f"/>
    </g>
    <g id="Component_19_5" data-name="Component 19 – 5" transform="translate(141 564.547)">
      <g id="Group_871" data-name="Group 871">
        <g transform="matrix(1, 0, 0, 1, -141, -564.55)" filter="url(#Ellipse_120)">
          <circle id="Ellipse_120-3" data-name="Ellipse 120" cx="24.5" cy="24.5" r="24.5" transform="translate(141 564.55)" fill="#ec871f"/>
        </g>
      </g>
      <text id="x" transform="translate(17 31)" fill="#fff" font-size="24" font-family="Open Sans" font-weight="700"><tspan x="0" y="0">x</tspan></text>
    </g>
    <g id="Component_709_14" data-name="Component 709 – 14" transform="translate(33 548.547)" clip-path="url(#clip-path-28)">
      <g id="Group_871-2" data-name="Group 871" transform="translate(-1163 -1454)">
        <g transform="matrix(1, 0, 0, 1, 1130, 905.45)" filter="url(#Ellipse_120-2)">
          <circle id="Ellipse_120-4" data-name="Ellipse 120" cx="39" cy="39" r="39" transform="translate(48 558.55)" fill="#ec871f"/>
        </g>
      </g>
      <path id="warning-17" data-name="warning" d="M16.7,23.137v-3.2a.53.53,0,0,0-.164-.4.539.539,0,0,0-.389-.16H12.827a.539.539,0,0,0-.389.16.53.53,0,0,0-.164.4v3.2a.53.53,0,0,0,.164.4.539.539,0,0,0,.389.16h3.318a.539.539,0,0,0,.389-.16A.53.53,0,0,0,16.7,23.137Zm-.035-6.293.311-7.724A.368.368,0,0,0,16.8,8.8a.676.676,0,0,0-.415-.185h-3.8a.676.676,0,0,0-.415.185A.4.4,0,0,0,12,9.154l.294,7.69a.322.322,0,0,0,.173.278.759.759,0,0,0,.415.109h3.2a.716.716,0,0,0,.406-.109A.373.373,0,0,0,16.663,16.844ZM16.421,1.127,29.692,24.82a1.963,1.963,0,0,1-.035,2.12,2.145,2.145,0,0,1-.8.774,2.206,2.206,0,0,1-1.1.286H1.215a2.206,2.206,0,0,1-1.1-.286,2.145,2.145,0,0,1-.8-.774A1.963,1.963,0,0,1-.72,24.82L12.551,1.127a2.223,2.223,0,0,1,3.871,0Z" transform="translate(40.014 30.898)" fill="#fff"/>
    </g>
  </g>
</svg>
