<svg width="1440" height="977" viewBox="0 0 1440 977" fill="none" xmlns="http://www.w3.org/2000/svg">
<g clip-path="url(#clip0_1_417)">
<path d="M596.014 443.005L507.013 532.007L596.014 621.008L685.015 532.007L596.014 443.005Z" fill="#49B1E2"/>
</g>
<g clip-path="url(#clip1_1_417)">
<path d="M949.014 265.005L860.013 354.007L949.014 443.008L1038.02 354.007L949.014 265.005Z" fill="#49B1E2"/>
</g>
<g clip-path="url(#clip2_1_417)">
<path d="M861.014 177.005L772.013 266.007L861.014 355.008L950.015 266.007L861.014 177.005Z" fill="#49B1E2"/>
</g>
<g clip-path="url(#clip3_1_417)">
<path d="M862.014 710.005L773.013 799.007L862.014 888.008L951.015 799.007L862.014 710.005Z" fill="#49B1E2"/>
</g>
<g clip-path="url(#clip4_1_417)">
<path d="M508.014 354.005L419.013 443.007L508.014 532.008L597.015 443.007L508.014 354.005Z" fill="#49B1E2" fill-opacity="0.2"/>
</g>
<g clip-path="url(#clip5_1_417)">
<path d="M774.014 621.005L685.013 710.007L774.014 799.008L863.015 710.007L774.014 621.005Z" fill="#49B1E2"/>
</g>
<g clip-path="url(#clip6_1_417)">
<path d="M510.014 710.005L421.013 799.007L510.014 888.008L599.015 799.007L510.014 710.005Z" fill="#49B1E2"/>
</g>
<g clip-path="url(#clip7_1_417)">
<path d="M419.014 443.005L330.013 532.007L419.014 621.008L508.015 532.007L419.014 443.005Z" fill="#49B1E2" fill-opacity="0.1"/>
</g>
<g clip-path="url(#clip8_1_417)">
<path d="M508.014 532.005L419.013 621.007L508.014 710.008L597.015 621.007L508.014 532.005Z" fill="#49B1E2" fill-opacity="0.2"/>
</g>
<g clip-path="url(#clip9_1_417)">
<path d="M685.014 710.005L596.013 799.007L685.014 888.008L774.015 799.007L685.014 710.005Z" fill="#49B1E2"/>
</g>
<g clip-path="url(#clip10_1_417)">
<path d="M1215.01 532.005L1126.01 621.007L1215.01 710.008L1304.02 621.007L1215.01 532.005Z" fill="#49B1E2" fill-opacity="0.2"/>
</g>
<g clip-path="url(#clip11_1_417)">
<path d="M1304.01 621.005L1215.01 710.007L1304.01 799.008L1393.02 710.007L1304.01 621.005Z" fill="#49B1E2" fill-opacity="0.2"/>
</g>
<g clip-path="url(#clip12_1_417)">
<path d="M774.014 799.005L685.013 888.007L774.014 977.008L863.015 888.007L774.014 799.005Z" fill="#49B1E2" fill-opacity="0.7"/>
</g>
<g clip-path="url(#clip13_1_417)">
<path d="M156.014 354.005L67.0132 443.007L156.014 532.008L245.015 443.007L156.014 354.005Z" fill="#49B1E2" fill-opacity="0.2"/>
</g>
<g clip-path="url(#clip14_1_417)">
<path d="M597.014 265.005L508.013 354.007L597.014 443.008L686.015 354.007L597.014 265.005Z" fill="#49B1E2"/>
</g>
<g clip-path="url(#clip15_1_417)">
<path d="M861.014 176.005L772.013 265.007L861.014 354.008L950.015 265.007L861.014 176.005Z" fill="#49B1E2"/>
</g>
<g clip-path="url(#clip16_1_417)">
<path d="M419.014 265.005L330.013 354.007L419.014 443.008L508.015 354.007L419.014 265.005Z" fill="#49B1E2" fill-opacity="0.2"/>
</g>
<g clip-path="url(#clip17_1_417)">
<path d="M774.014 87.0055L685.013 176.007L774.014 265.008L863.015 176.007L774.014 87.0055Z" fill="#49B1E2"/>
</g>
<g clip-path="url(#clip18_1_417)">
<path d="M685.014 532.005L596.013 621.007L685.014 710.008L774.015 621.007L685.014 532.005Z" fill="#49B1E2"/>
</g>
<g clip-path="url(#clip19_1_417)">
<path d="M330.014 354.005L241.013 443.007L330.014 532.008L419.015 443.007L330.014 354.005Z" fill="#49B1E2" fill-opacity="0.1"/>
</g>
<g clip-path="url(#clip20_1_417)">
<path d="M596.014 621.005L507.013 710.007L596.014 799.008L685.015 710.007L596.014 621.005Z" fill="#49B1E2" fill-opacity="0.2"/>
</g>
<g clip-path="url(#clip21_1_417)">
<path d="M1127.01 443.005L1038.01 532.007L1127.01 621.008L1216.02 532.007L1127.01 443.005Z" fill="#49B1E2" fill-opacity="0.3"/>
</g>
<g clip-path="url(#clip22_1_417)">
<path d="M685.014 355.005L596.013 444.007L685.014 533.008L774.015 444.007L685.014 355.005Z" fill="#49B1E2" fill-opacity="0.8"/>
</g>
<g clip-path="url(#clip23_1_417)">
<path d="M685.014 176.005L596.013 265.007L685.014 354.008L774.015 265.007L685.014 176.005Z" fill="#49B1E2"/>
</g>
<g clip-path="url(#clip24_1_417)">
<path d="M1038.01 532.005L949.013 621.007L1038.01 710.008L1127.02 621.007L1038.01 532.005Z" fill="#49B1E2"/>
</g>
<g clip-path="url(#clip25_1_417)">
<path d="M156.014 532.005L67.0132 621.007L156.014 710.008L245.015 621.007L156.014 532.005Z" fill="#49B1E2" fill-opacity="0.2"/>
</g>
<g clip-path="url(#clip26_1_417)">
<path d="M861.014 354.005L772.013 443.007L861.014 532.008L950.015 443.007L861.014 354.005Z" fill="#49B1E2" fill-opacity="0.8"/>
</g>
<g clip-path="url(#clip27_1_417)">
<path d="M773.014 266.005L684.013 355.007L773.014 444.008L862.015 355.007L773.014 266.005Z" fill="#49B1E2"/>
</g>
<g clip-path="url(#clip28_1_417)">
<path d="M1127.01 621.005L1038.01 710.007L1127.01 799.008L1216.02 710.007L1127.01 621.005Z" fill="#49B1E2" fill-opacity="0.1"/>
</g>
<g clip-path="url(#clip29_1_417)">
<path d="M1216.01 710.005L1127.01 799.007L1216.01 888.008L1305.02 799.007L1216.01 710.005Z" fill="#49B1E2" fill-opacity="0.1"/>
</g>
<g clip-path="url(#clip30_1_417)">
<path d="M508.014 176.005L419.013 265.007L508.014 354.008L597.015 265.007L508.014 176.005Z" fill="#49B1E2"/>
</g>
<g clip-path="url(#clip31_1_417)">
<path d="M774.014 443.005L685.013 532.007L774.014 621.008L863.015 532.007L774.014 443.005Z" fill="#49B1E2"/>
</g>
<g clip-path="url(#clip32_1_417)">
<path d="M1127.01 265.005L1038.01 354.007L1127.01 443.008L1216.02 354.007L1127.01 265.005Z" fill="#49B1E2" fill-opacity="0.3"/>
</g>
<g clip-path="url(#clip33_1_417)">
<path d="M861.014 0.00547601L772.013 89.0065L861.014 178.008L950.015 89.0065L861.014 0.00547601Z" fill="#49B1E2"/>
</g>
<g clip-path="url(#clip34_1_417)">
<path d="M863.014 532.005L774.013 621.007L863.014 710.008L952.015 621.007L863.014 532.005Z" fill="#49B1E2" fill-opacity="0.8"/>
</g>
<g clip-path="url(#clip35_1_417)">
<path d="M1216.01 354.005L1127.01 443.007L1216.01 532.008L1305.02 443.007L1216.01 354.005Z" fill="#49B1E2" fill-opacity="0.2"/>
</g>
<g clip-path="url(#clip36_1_417)">
<path d="M67.0143 265.005L-21.9868 354.007L67.0143 443.008L156.015 354.007L67.0143 265.005Z" fill="#49B1E2" fill-opacity="0.2"/>
</g>
<g clip-path="url(#clip37_1_417)">
<path d="M1038.01 354.005L949.013 443.007L1038.01 532.008L1127.02 443.007L1038.01 354.005Z" fill="#49B1E2"/>
</g>
<g clip-path="url(#clip38_1_417)">
<path d="M-21.9857 354.005L-110.987 443.007L-21.9857 532.008L67.0153 443.007L-21.9857 354.005Z" fill="#49B1E2" fill-opacity="0.1"/>
</g>
<g clip-path="url(#clip39_1_417)">
<path d="M244.014 621.005L155.013 710.007L244.014 799.008L333.015 710.007L244.014 621.005Z" fill="#49B1E2" fill-opacity="0.2"/>
</g>
<g clip-path="url(#clip40_1_417)">
<path d="M949.014 443.005L860.013 532.007L949.014 621.008L1038.02 532.007L949.014 443.005Z" fill="#49B1E2"/>
</g>
<g clip-path="url(#clip41_1_417)">
<path d="M333.014 355.005L244.013 444.007L333.014 533.008L422.015 444.007L333.014 355.005Z" fill="#49B1E2" fill-opacity="0.8"/>
</g>
<g clip-path="url(#clip42_1_417)">
<path d="M1128.01 89.0055L1039.01 178.007L1128.01 267.008L1217.02 178.007L1128.01 89.0055Z" fill="#49B1E2"/>
</g>
<g clip-path="url(#clip43_1_417)">
<path d="M949.014 88.0055L860.013 177.007L949.014 266.008L1038.02 177.007L949.014 88.0055Z" fill="#49B1E2"/>
</g>
<g clip-path="url(#clip44_1_417)">
<path d="M950.014 621.005L861.013 710.007L950.014 799.008L1039.02 710.007L950.014 621.005Z" fill="#49B1E2"/>
</g>
<g clip-path="url(#clip45_1_417)">
<path d="M1393.01 355.005L1304.01 444.007L1393.01 533.008L1482.02 444.007L1393.01 355.005Z" fill="#49B1E2" fill-opacity="0.1"/>
</g>
<g clip-path="url(#clip46_1_417)">
<path d="M1392.01 532.005L1303.01 621.007L1392.01 710.008L1481.02 621.007L1392.01 532.005Z" fill="#49B1E2" fill-opacity="0.1"/>
</g>
<defs>
<clipPath id="clip0_1_417">
<rect width="178" height="178" fill="white" transform="translate(507 443)"/>
</clipPath>
<clipPath id="clip1_1_417">
<rect width="178" height="178" fill="white" transform="translate(860 265)"/>
</clipPath>
<clipPath id="clip2_1_417">
<rect width="178" height="178" fill="white" transform="translate(772 177)"/>
</clipPath>
<clipPath id="clip3_1_417">
<rect width="178" height="178" fill="white" transform="translate(773 710)"/>
</clipPath>
<clipPath id="clip4_1_417">
<rect width="178" height="178" fill="white" transform="translate(419 354)"/>
</clipPath>
<clipPath id="clip5_1_417">
<rect width="178" height="178" fill="white" transform="translate(685 621)"/>
</clipPath>
<clipPath id="clip6_1_417">
<rect width="178" height="178" fill="white" transform="translate(421 710)"/>
</clipPath>
<clipPath id="clip7_1_417">
<rect width="178" height="178" fill="white" transform="translate(330 443)"/>
</clipPath>
<clipPath id="clip8_1_417">
<rect width="178" height="178" fill="white" transform="translate(419 532)"/>
</clipPath>
<clipPath id="clip9_1_417">
<rect width="178" height="178" fill="white" transform="translate(596 710)"/>
</clipPath>
<clipPath id="clip10_1_417">
<rect width="178" height="178" fill="white" transform="translate(1126 532)"/>
</clipPath>
<clipPath id="clip11_1_417">
<rect width="178" height="178" fill="white" transform="translate(1215 621)"/>
</clipPath>
<clipPath id="clip12_1_417">
<rect width="178" height="178" fill="white" transform="translate(685 799)"/>
</clipPath>
<clipPath id="clip13_1_417">
<rect width="178" height="178" fill="white" transform="translate(67 354)"/>
</clipPath>
<clipPath id="clip14_1_417">
<rect width="178" height="178" fill="white" transform="translate(508 265)"/>
</clipPath>
<clipPath id="clip15_1_417">
<rect width="178" height="178" fill="white" transform="translate(772 176)"/>
</clipPath>
<clipPath id="clip16_1_417">
<rect width="178" height="178" fill="white" transform="translate(330 265)"/>
</clipPath>
<clipPath id="clip17_1_417">
<rect width="178" height="178" fill="white" transform="translate(685 87)"/>
</clipPath>
<clipPath id="clip18_1_417">
<rect width="178" height="178" fill="white" transform="translate(596 532)"/>
</clipPath>
<clipPath id="clip19_1_417">
<rect width="178" height="178" fill="white" transform="translate(241 354)"/>
</clipPath>
<clipPath id="clip20_1_417">
<rect width="178" height="178" fill="white" transform="translate(507 621)"/>
</clipPath>
<clipPath id="clip21_1_417">
<rect width="178" height="178" fill="white" transform="translate(1038 443)"/>
</clipPath>
<clipPath id="clip22_1_417">
<rect width="178" height="178" fill="white" transform="translate(596 355)"/>
</clipPath>
<clipPath id="clip23_1_417">
<rect width="178" height="178" fill="white" transform="translate(596 176)"/>
</clipPath>
<clipPath id="clip24_1_417">
<rect width="178" height="178" fill="white" transform="translate(949 532)"/>
</clipPath>
<clipPath id="clip25_1_417">
<rect width="178" height="178" fill="white" transform="translate(67 532)"/>
</clipPath>
<clipPath id="clip26_1_417">
<rect width="178" height="178" fill="white" transform="translate(772 354)"/>
</clipPath>
<clipPath id="clip27_1_417">
<rect width="178" height="178" fill="white" transform="translate(684 266)"/>
</clipPath>
<clipPath id="clip28_1_417">
<rect width="178" height="178" fill="white" transform="translate(1038 621)"/>
</clipPath>
<clipPath id="clip29_1_417">
<rect width="178" height="178" fill="white" transform="translate(1127 710)"/>
</clipPath>
<clipPath id="clip30_1_417">
<rect width="178" height="178" fill="white" transform="translate(419 176)"/>
</clipPath>
<clipPath id="clip31_1_417">
<rect width="178" height="178" fill="white" transform="translate(685 443)"/>
</clipPath>
<clipPath id="clip32_1_417">
<rect width="178" height="178" fill="white" transform="translate(1038 265)"/>
</clipPath>
<clipPath id="clip33_1_417">
<rect width="178" height="178" fill="white" transform="translate(772)"/>
</clipPath>
<clipPath id="clip34_1_417">
<rect width="178" height="178" fill="white" transform="translate(774 532)"/>
</clipPath>
<clipPath id="clip35_1_417">
<rect width="178" height="178" fill="white" transform="translate(1127 354)"/>
</clipPath>
<clipPath id="clip36_1_417">
<rect width="178" height="178" fill="white" transform="translate(-22 265)"/>
</clipPath>
<clipPath id="clip37_1_417">
<rect width="178" height="178" fill="white" transform="translate(949 354)"/>
</clipPath>
<clipPath id="clip38_1_417">
<rect width="178" height="178" fill="white" transform="translate(-111 354)"/>
</clipPath>
<clipPath id="clip39_1_417">
<rect width="178" height="178" fill="white" transform="translate(155 621)"/>
</clipPath>
<clipPath id="clip40_1_417">
<rect width="178" height="178" fill="white" transform="translate(860 443)"/>
</clipPath>
<clipPath id="clip41_1_417">
<rect width="178" height="178" fill="white" transform="translate(244 355)"/>
</clipPath>
<clipPath id="clip42_1_417">
<rect width="178" height="178" fill="white" transform="translate(1039 89)"/>
</clipPath>
<clipPath id="clip43_1_417">
<rect width="178" height="178" fill="white" transform="translate(860 88)"/>
</clipPath>
<clipPath id="clip44_1_417">
<rect width="178" height="178" fill="white" transform="translate(861 621)"/>
</clipPath>
<clipPath id="clip45_1_417">
<rect width="178" height="178" fill="white" transform="translate(1304 355)"/>
</clipPath>
<clipPath id="clip46_1_417">
<rect width="178" height="178" fill="white" transform="translate(1303 532)"/>
</clipPath>
</defs>
</svg>
