<svg width="155" height="136" viewBox="0 0 155 136" fill="none" xmlns="http://www.w3.org/2000/svg">
<path d="M0.731445 0H77.9132L105.269 28.7883V136H0.731445V0Z" fill="white"/>
<rect x="131.149" y="27.9106" width="33.7301" height="84.684" rx="4.54875" transform="rotate(45 131.149 27.9106)" fill="white"/>
<path d="M59.4864 108.663C58.7743 107.231 57.5336 107.086 57.0314 107.086C56.5293 107.086 55.2886 107.229 54.6127 108.583L52.7611 112.293C51.2235 115.383 46.719 115.042 45.6448 111.787L41.5821 99.5817L39.0209 107.291C37.5991 111.562 33.6184 114.433 29.1236 114.433H26.1327C23.9988 114.433 22.2704 112.701 22.2704 110.564C22.2704 108.426 23.9988 106.694 26.1327 106.694H29.1236C30.2896 106.694 31.3228 105.949 31.6921 104.842L36.0831 91.6277C36.8797 89.2552 39.0861 87.6591 41.5821 87.6591C44.0781 87.6591 46.2845 89.2528 47.0787 91.6277L50.4293 101.698C55.1968 97.7824 63.4791 99.3519 66.3614 105.122C66.8176 106.036 67.6867 106.561 68.6209 106.636V86.7764L99.5196 56.0412V44.7837H66.6873C63.5009 44.7837 60.8938 42.1718 60.8938 38.9796V6.08966H12.6146C9.40398 6.08966 6.82104 6.08966 6.82104 6.08966V129.911C6.82104 129.911 9.40398 129.911 12.6146 129.911H93.7237C96.9342 129.911 99.5172 129.911 99.5172 129.911V114.433L68.6185 114.406C64.7272 114.331 61.2366 112.162 59.4864 108.663ZM99.5172 35.5697C99.5172 34.0461 98.9137 32.5709 97.8274 31.4826L74.1947 7.78252C73.1084 6.69425 71.6359 6.08966 70.091 6.08966H68.6185V37.0449H99.5172V35.5697ZM76.3431 89.9977V106.694H92.9971L132.026 67.3278L115.64 50.9119L76.3431 89.9977ZM144.064 46.5564L136.371 38.849C133.972 36.4451 130.078 36.4451 127.678 38.849L121.1 45.4391L137.486 61.855L144.064 55.2649C146.466 52.8611 146.466 48.9602 144.064 46.5564Z" fill="black"/>
</svg>
