<svg width="157" height="156" viewBox="0 0 157 156" fill="none" xmlns="http://www.w3.org/2000/svg">
<path d="M7.13037 28.3041C4.67809 29.1938 4.67817 29.1941 4.67826 29.1943L4.67844 29.1948L4.67884 29.1959L4.67973 29.1983L4.68196 29.2044L4.68818 29.2213L4.70766 29.2735C4.72379 29.3162 4.74623 29.3749 4.77509 29.4485C4.83279 29.5956 4.91621 29.8024 5.02608 30.0605C5.24566 30.5762 5.57199 31.2992 6.01124 32.1613L6.01122 32.1613L6.01697 32.1725L18.0129 55.4385L18.0162 55.4449L18.0195 55.4512C18.4658 56.3052 18.8856 57.0369 19.1946 57.5567C19.3495 57.8172 19.4776 58.0261 19.5685 58.1723C19.614 58.2454 19.6503 58.303 19.676 58.3437L19.7067 58.3918L19.7158 58.406L19.7188 58.4106L19.7198 58.4123L19.7203 58.413L19.7205 58.4133C19.7206 58.4134 19.7206 58.4136 21.913 56.9998L19.7206 58.4136L20.9073 60.2537L22.9253 59.404L38.9254 52.6677V52.6812V52.695V52.7089V52.7228V52.7367V52.7506V52.7646V52.7785V52.7925V52.8064V52.8204V52.8344V52.8484V52.8625V52.8765V52.8906V52.9046V52.9187V52.9328V52.9469V52.961V52.9752V52.9893V53.0035V111.036V113.645H41.5341H41.5343H41.5345H41.5347H41.535H41.5354H41.5358H41.5363H41.5369H41.5376H41.5383H41.5391H41.5399H41.5408H41.5418H41.5429H41.544H41.5452H41.5464H41.5477H41.5491H41.5506H41.5521H41.5537H41.5553H41.557H41.5588H41.5607H41.5626H41.5646H41.5666H41.5687H41.5709H41.5732H41.5755H41.5778H41.5803H41.5828H41.5853H41.588H41.5907H41.5934H41.5962H41.5991H41.6021H41.6051H41.6082H41.6113H41.6145H41.6178H41.6212H41.6246H41.628H41.6315H41.6351H41.6388H41.6425H41.6463H41.6501H41.654H41.658H41.662H41.6661H41.6703H41.6745H41.6787H41.6831H41.6875H41.692H41.6965H41.7011H41.7057H41.7104H41.7152H41.72H41.7249H41.7299H41.7349H41.7399H41.7451H41.7503H41.7555H41.7608H41.7662H41.7717H41.7771H41.7827H41.7883H41.794H41.7997H41.8055H41.8114H41.8173H41.8233H41.8293H41.8354H41.8415H41.8477H41.854H41.8603H41.8667H41.8731H41.8796H41.8862H41.8928H41.8995H41.9062H41.913H41.9199H41.9268H41.9337H41.9407H41.9478H41.9549H41.9621H41.9694H41.9767H41.984H41.9915H41.9989H42.0065H42.014H42.0217H42.0294H42.0371H42.0449H42.0528H42.0607H42.0687H42.0767H42.0848H42.093H42.1012H42.1094H42.1177H42.1261H42.1345H42.143H42.1515H42.1601H42.1687H42.1774H42.1862H42.195H42.2038H42.2127H42.2217H42.2307H42.2398H42.2489H42.2581H42.2673H42.2766H42.2859H42.2953H42.3047H42.3142H42.3237H42.3333H42.343H42.3527H42.3624H42.3722H42.3821H42.392H42.402H42.412H42.4221H42.4322H42.4423H42.4526H42.4628H42.4731H42.4835H42.4939H42.5044H42.5149H42.5255H42.5361H42.5468H42.5575H42.5683H42.5791H42.59H42.6009H42.6119H42.6229H42.634H42.6451H42.6563H42.6675H42.6788H42.6901H42.7015H42.7129H42.7244H42.7359H42.7474H42.7591H42.7707H42.7824H42.7942H42.806H42.8178H42.8297H42.8417H42.8537H42.8657H42.8778H42.89H42.9021H42.9144H42.9267H42.939H42.9514H42.9638H42.9762H42.9887H43.0013H43.0139H43.0266H43.0393H43.052H43.0648H43.0776H43.0905H43.1034H43.1164H43.1294H43.1425H43.1556H43.1687H43.1819H43.1952H43.2085H43.2218H43.2352H43.2486H43.2621H43.2756H43.2891H43.3027H43.3164H43.33H43.3438H43.3575H43.3714H43.3852H43.3991H43.4131H43.4271H43.4411H43.4552H43.4693H43.4834H43.4976H43.5119H43.5262H43.5405H43.5549H43.5693H43.5837H43.5982H43.6128H43.6274H43.642H43.6566H43.6714H43.6861H43.7009H43.7157H43.7306H43.7455H43.7604H43.7754H43.7905H43.8055H43.8207H43.8358H43.851H43.8662H43.8815H43.8968H43.9122H43.9276H43.943H43.9585H43.974H43.9895H44.0051H44.0208H44.0364H44.0521H44.0679H44.0837H44.0995H44.1153H44.1312H44.1472H44.1631H44.1792H44.1952H44.2113H44.2274H44.2436H44.2598H44.276H44.2923H44.3086H44.325H44.3414H44.3578H44.3742H44.3907H44.4073H44.4238H44.4404H44.4571H44.4738H44.4905H44.5072H44.524H44.5408H44.5577H44.5746H44.5915H44.6085H44.6255H44.6425H44.6596H44.6767H44.6938H44.711H44.7282H44.7455H44.7627H44.7801H44.7974H44.8148H44.8322H44.8496H44.8671H44.8846H44.9022H44.9198H44.9374H44.955H44.9727H44.9904H45.0082H45.026H45.0438H45.0616H45.0795H45.0974H45.1154H45.1334H45.1514H45.1694H45.1875H45.2056H45.2237H45.2419H45.2601H45.2783H45.2966H45.3149H45.3332H45.3516H45.3699H45.3884H45.4068H45.4253H45.4438H45.4623H45.4809H45.4995H45.5181H45.5368H45.5555H45.5742H45.593H45.6117H45.6305H45.6494H45.6683H45.6871H45.7061H45.725H45.744H45.763H45.7821H45.8011H45.8202H45.8394H45.8585H45.8777H45.8969H45.9162H45.9354H45.9547H45.974H45.9934H46.0128H46.0322H46.0516H46.0711H46.0906H46.1101H46.1296H46.1492H46.1688H46.1884H46.208H46.2277H46.2474H46.2671H46.2869H46.3067H46.3265H46.3463H46.3661H46.386H46.4059H46.4259H46.4458H46.4658H46.4858H46.5058H46.5259H46.546H46.5661H46.5862H46.6064H46.6265H46.6468H46.667H46.6872H46.7075H46.7278H46.7481H46.7685H46.7888H46.8092H46.8296H46.8501H46.8705H46.891H46.9115H46.9321H46.9526H46.9732H46.9938H47.0144H47.0351H47.0557H47.0764H47.0971H47.1179H47.1386H47.1594H47.1802H47.201H47.2218H47.2427H47.2636H47.2845H47.3054H47.3263H47.3473H47.3683H47.3893H47.4103H47.4314H47.4524H47.4735H47.4946H47.5158H47.5369H47.5581H47.5792H47.6005H47.6217H47.6429H47.6642H47.6855H47.7068H47.7281H47.7494H47.7708H47.7922H47.8135H47.835H47.8564H47.8778H47.8993H47.9208H47.9423H47.9638H47.9854H48.0069H48.0285H48.0501H48.0717H48.0933H48.1149H48.1366H48.1583H48.18H48.2017H48.2234H48.2452H101.933C107.008 113.645 111.253 109.649 111.253 104.534V52.9832C111.253 52.7864 111.347 52.5941 111.577 52.4542C111.809 52.3131 112.086 52.289 112.348 52.4132L112.35 52.4143L124.207 58.0363C127.104 59.4461 130.651 58.3302 132.156 55.4365C132.159 55.4307 132.162 55.4248 132.165 55.419L145.955 29.5305L147.158 27.2716L144.922 26.0255L143.652 28.3041C144.922 26.0255 144.922 26.0255 144.922 26.0254L144.922 26.0253L144.921 26.025L144.92 26.0242L144.915 26.0217L144.899 26.0126L144.84 25.9799C144.789 25.9518 144.716 25.9115 144.623 25.8608C144.438 25.7596 144.174 25.617 143.858 25.449C143.228 25.1152 142.376 24.6737 141.504 24.2566C141.504 24.2566 141.504 24.2565 141.504 24.2565C141.503 24.2559 141.501 24.2554 141.5 24.2549L100.672 4.64816L98.736 3.71857L97.4517 5.43959C93.907 10.1898 85.5235 13.9819 75.1102 13.9819C64.6968 13.9819 56.3133 10.1898 52.7686 5.43959L51.4748 3.70575L49.5315 4.65645L5.98398 25.9608L3.87877 26.9907L4.67809 29.1938L7.13037 28.3041Z" fill="black" stroke="white" stroke-width="5.21739"/>
<path fill-rule="evenodd" clip-rule="evenodd" d="M123.194 16.0156L114.787 24.0308V40.7453H84.877V46.2193H80.967V57.5578H83.8995L90.9372 131.063H132.382L139.419 57.5578H142.938V46.2193H139.419V40.7453H118.306V32.3393V25.497L125.637 18.6548L123.194 16.0156Z" fill="white"/>
<ellipse cx="112.609" cy="88.2379" rx="14.0173" ry="19.5142" fill="black"/>
<path fill-rule="evenodd" clip-rule="evenodd" d="M140.727 44.5262H143.104C143.544 44.5267 143.965 44.7009 144.276 45.0107C144.587 45.3205 144.763 45.7409 144.766 46.1801V56.9322C144.766 57.3729 144.591 57.7955 144.279 58.1072C143.968 58.4188 143.545 58.5939 143.104 58.5939H140.803L133.852 133.319C133.813 133.731 133.622 134.114 133.316 134.393C133.011 134.671 132.612 134.826 132.198 134.826H91.1893C90.7754 134.826 90.3765 134.671 90.0706 134.393C89.7648 134.114 89.5739 133.731 89.5354 133.319L82.5837 58.6017H80.2828C79.8421 58.6017 79.4194 58.4266 79.1078 58.115C78.7962 57.8034 78.6211 57.3807 78.6211 56.94V46.1879C78.6216 45.7474 78.7968 45.325 79.1084 45.0135C79.4199 44.702 79.8422 44.5267 80.2828 44.5262H82.66V40.3701C82.66 39.9293 82.835 39.5067 83.1467 39.1951C83.4583 38.8834 83.8809 38.7084 84.3217 38.7084H113.628V25.8938C113.629 25.8018 113.647 25.7109 113.683 25.626L114.879 22.8129C114.916 22.7286 114.968 22.6523 115.034 22.5881L122.767 15.1359C122.831 15.0726 122.907 15.0227 122.991 14.9892C123.075 14.9556 123.164 14.939 123.254 14.9404C123.436 14.9439 123.608 15.0191 123.735 15.1496L126.448 17.9549C126.512 18.0197 126.563 18.0967 126.596 18.1813C126.63 18.2658 126.647 18.3563 126.645 18.4473C126.643 18.5383 126.624 18.6281 126.587 18.7114C126.55 18.7947 126.497 18.8698 126.431 18.9323L118.908 26.1851V38.7084H139.065C139.506 38.7084 139.929 38.8834 140.24 39.1951C140.552 39.5067 140.727 39.9293 140.727 40.3701V44.5262ZM116.083 23.4775L114.996 26.0346L114.998 38.7025H117.54V25.888C117.541 25.7968 117.56 25.7068 117.596 25.6231C117.632 25.5395 117.685 25.464 117.751 25.4012L124.984 18.4221L123.225 16.5923L116.083 23.4775ZM137.398 42.0317H85.9833V44.5262H137.398V42.0317ZM81.9445 55.2705H141.448L141.443 47.8418H81.9445V55.2705ZM86.2451 58.9265L93.2828 131.063H130.035L137.269 58.9265H86.2451Z" fill="black"/>
</svg>
