<svg width="137" height="115" viewBox="0 0 137 115" fill="none" xmlns="http://www.w3.org/2000/svg">
<rect x="1.57852" y="34.501" width="55.9441" height="13.4632" fill="black" stroke="white" stroke-width="2.84297"/>
<rect x="1.57852" y="1.57852" width="55.9441" height="13.4632" fill="black" stroke="white" stroke-width="2.84297"/>
<rect x="1.57852" y="50.4312" width="55.9441" height="14.5252" fill="black" stroke="white" stroke-width="2.84297"/>
<rect x="1.57852" y="17.5087" width="55.9441" height="14.5252" fill="black" stroke="white" stroke-width="2.84297"/>
<rect x="1.57852" y="67.4236" width="55.9441" height="13.4632" fill="black" stroke="white" stroke-width="2.84297"/>
<rect x="78.9579" y="67.0353" width="55.9441" height="13.4632" fill="black" stroke="white" stroke-width="2.84297"/>
<rect x="78.9579" y="34.1127" width="55.9441" height="13.4632" fill="black" stroke="white" stroke-width="2.84297"/>
<rect x="78.9579" y="82.9655" width="55.9441" height="14.5252" fill="black" stroke="white" stroke-width="2.84297"/>
<rect x="78.9579" y="50.0429" width="55.9441" height="14.5252" fill="black" stroke="white" stroke-width="2.84297"/>
<rect x="78.9579" y="99.9578" width="55.9441" height="13.4632" fill="black" stroke="white" stroke-width="2.84297"/>
<circle cx="68.069" cy="58.3961" r="38.6896" fill="white"/>
<circle cx="68.0689" cy="58.3963" r="28.8121" fill="white" stroke="black" stroke-width="5.68594"/>
<path d="M61.3356 71.7643C63.1832 72.8764 65.2732 73.534 67.4305 73.682V74.9052C67.4177 75.186 67.469 75.4659 67.5805 75.7243C67.692 75.9828 67.8608 76.213 68.0745 76.398C68.4331 76.6964 68.8863 76.8606 69.3548 76.8619C69.8208 76.8583 70.273 76.7046 70.6429 76.4239C70.8757 76.2452 71.0624 76.0144 71.1876 75.7504C71.3128 75.4864 71.3728 75.1967 71.3629 74.9052V73.6405C73.6039 73.3244 75.3214 72.5314 76.4681 71.277C77.7536 69.8724 78.4658 68.3201 78.5836 66.6796C78.664 65.7675 78.6138 64.8488 78.4343 63.9507C78.2555 62.9382 77.8698 61.9726 77.3007 61.1129C76.6448 60.1764 75.7963 59.3878 74.8109 58.7986C73.7477 58.16 72.5813 57.7077 71.3629 57.4614V47.02C71.6306 47.1245 71.886 47.2574 72.1247 47.4165C72.6791 47.7868 73.1773 48.2336 73.6039 48.7434C73.9756 49.19 74.2613 49.7004 74.447 50.2491C74.637 50.8154 74.7609 51.4015 74.8161 51.9958C74.9496 53.1698 75.8058 53.6259 76.6278 53.53C77.4499 53.4341 78.0678 52.8225 78.2877 51.6537C78.2249 49.2772 77.4473 47.3361 75.9733 45.8952C74.7086 44.6695 73.1034 43.8448 71.3629 43.5265V41.9535C71.3725 41.6914 71.3287 41.4301 71.234 41.1851C71.1394 40.9402 70.9958 40.7166 70.8119 40.5278C70.628 40.3391 70.4076 40.1889 70.1637 40.0863C69.9199 39.9838 69.6577 39.9309 69.3927 39.9309C69.1278 39.9309 68.8656 39.9838 68.6217 40.0863C68.3779 40.1889 68.1575 40.3391 67.9736 40.5278C67.7897 40.7166 67.6461 40.9402 67.5514 41.1851C67.4568 41.4301 67.413 41.6914 67.4226 41.9535V43.3192C66.3589 43.4249 65.3129 43.6635 64.3097 44.0293C63.1155 44.4517 62.0226 45.1144 61.0999 45.9756C60.2358 46.7901 59.5574 47.7779 59.1102 48.8729C58.667 50.0063 58.4984 51.2268 58.618 52.4363C58.8192 54.5865 59.8509 56.5768 61.4979 57.9927C63.0504 59.2729 65.0978 60.0659 67.4148 60.3251V70.3285C65.6161 70.1445 64.205 69.6729 63.2101 68.9265C62.1324 68.1777 61.3564 67.0764 61.0188 65.8166C60.9376 65.1143 60.4166 64.3524 59.2463 64.3187C58.998 64.2792 58.7437 64.3025 58.507 64.3863C58.2702 64.4702 58.0587 64.6119 57.8921 64.7983C57.7254 64.9847 57.6091 65.2097 57.5538 65.4525C57.4986 65.6954 57.5062 65.9481 57.576 66.1872C57.7653 67.3282 58.1987 68.416 58.847 69.3778C59.4954 70.3396 60.3439 71.1532 61.3356 71.7643ZM63.43 54.9528C63.0541 54.6093 62.7591 54.1882 62.5661 53.7192C62.3975 53.2404 62.2859 52.7438 62.2336 52.2394C62.1843 51.5278 62.2896 50.814 62.5426 50.1461C62.7955 49.4783 63.19 48.8718 63.6997 48.3676C64.5663 47.4683 65.8151 46.9008 67.4148 46.6727V56.8861C66.6985 56.7627 66.0026 56.5429 65.3465 56.233C64.6484 55.9045 64.0049 55.4728 63.4379 54.9528H63.43ZM74.2899 68.6881C73.8861 69.1373 73.4014 69.5082 72.8604 69.7817C72.3874 70.0194 71.8793 70.1813 71.355 70.2611V60.96C72.5541 61.3202 73.4495 61.8334 74.0412 62.515C74.8266 63.4142 75.1827 64.7359 75.1382 66.5578V66.5837C75.1181 66.9062 75.0475 67.2235 74.9287 67.5244C74.7891 67.9452 74.5755 68.3383 74.2977 68.6855L74.2899 68.6881Z" fill="black"/>
</svg>
