<svg width="341" height="128" viewBox="0 0 341 128" fill="none" xmlns="http://www.w3.org/2000/svg">
<g clip-path="url(#clip0_247_361)">
<path d="M108.473 46.6389C121.826 30.5043 141.988 20.2108 164.509 20.2108C187.03 20.2108 207.192 30.5043 220.545 46.6389H245.054C228.979 18.7863 198.897 0 164.509 0C130.121 0 100.039 18.7863 83.9646 46.6389H108.473Z" fill="#009245"/>
<path d="M217.747 43.4496C204.457 29.1605 185.508 20.2108 164.509 20.2108C141.988 20.2108 121.826 30.5043 108.473 46.6389H83.9646C100.039 18.7863 130.121 0 164.509 0C193.651 0 219.699 13.4918 236.754 34.5581" fill="#8CC63F"/>
<path d="M122.023 46.6388C133.223 36.3543 148.143 30.0653 164.509 30.0653C180.875 30.0653 195.795 36.3543 206.995 46.6388H220.545C207.192 30.5043 187.03 20.2108 164.509 20.2108C141.988 20.2108 121.826 30.5043 108.473 46.6388H122.023Z" fill="#009245"/>
<path d="M201.319 7.61039C190.025 2.71448 177.58 0 164.509 0C130.121 0 100.039 18.7863 83.9646 46.6389H108.473C121.826 30.5043 141.988 20.2108 164.509 20.2108C172.464 20.2108 180.123 21.5008 187.294 23.8749" fill="#009245"/>
<path d="M193.799 53.7744H3.24541L0.447632 61.8686H189.718C191.5 59 192.5 56.5 193.799 53.7744Z" fill="#009245"/>
<path d="M185.637 53.7744H2.24542L0 61.8686H181.555C183 59 184 56.5 185.637 53.7744Z" fill="#009245"/>
<path d="M206.147 53.7744C204 57.5 203.5 59 202.097 61.8686H338.244L341 53.7744H206.147Z" fill="#009245"/>
<path d="M95.3079 127.15L91.6148 115.11H91.5208C91.6551 117.56 91.7222 119.195 91.7222 120.015V127.155H88.817V111.804H93.2442L96.8746 123.54H96.9373L100.787 111.804H105.214V127.155H102.184V119.889C102.184 119.545 102.188 119.15 102.202 118.702C102.215 118.255 102.26 117.063 102.345 115.132H102.251L98.2936 127.155H95.3123L95.3079 127.15Z" fill="#009245"/>
<path d="M118.464 127.15L117.354 123.495H111.763L110.653 127.15H107.148L112.56 111.737H116.535L121.97 127.15H118.464ZM116.575 120.767C115.546 117.457 114.968 115.585 114.839 115.15C114.709 114.716 114.615 114.375 114.561 114.12C114.328 115.016 113.67 117.233 112.578 120.767H116.575Z" fill="#009245"/>
<path d="M137.507 127.15H133.375L126.701 115.54H126.607C126.741 117.592 126.809 119.052 126.809 119.93V127.15H123.903V111.8H128.004L134.665 123.294H134.736C134.633 121.3 134.58 119.889 134.58 119.061V111.795H137.507V127.146V127.15Z" fill="#009245"/>
<path d="M150.757 127.15L149.647 123.495H144.056L142.946 127.15H139.441L144.853 111.737H148.828L154.263 127.15H150.757ZM148.868 120.767C147.839 117.457 147.261 115.585 147.132 115.15C147.002 114.716 146.908 114.375 146.854 114.12C146.621 115.016 145.963 117.233 144.871 120.767H148.868Z" fill="#009245"/>
<path d="M162.016 118.532H168.099V126.492C167.114 126.815 166.183 127.038 165.315 127.168C164.446 127.298 163.556 127.361 162.647 127.361C160.333 127.361 158.564 126.68 157.342 125.318C156.12 123.957 155.511 122.004 155.511 119.455C155.511 116.906 156.219 115.047 157.638 113.659C159.057 112.27 161.017 111.58 163.529 111.58C165.104 111.58 166.622 111.894 168.081 112.525L167.003 115.128C165.883 114.568 164.72 114.286 163.511 114.286C162.105 114.286 160.977 114.756 160.131 115.701C159.285 116.646 158.86 117.919 158.86 119.513C158.86 121.108 159.2 122.452 159.885 123.33C160.57 124.208 161.559 124.647 162.857 124.647C163.538 124.647 164.223 124.575 164.925 124.436V121.233H162.02V118.523L162.016 118.532Z" fill="#009245"/>
<path d="M180.584 127.15H171.752V111.8H180.584V114.465H175.002V117.833H180.195V120.499H175.002V124.458H180.584V127.146V127.15Z" fill="#009245"/>
<path d="M190.28 127.15L186.587 115.11H186.493C186.627 117.56 186.694 119.195 186.694 120.015V127.155H183.789V111.804H188.216L191.847 123.54H191.909L195.759 111.804H200.186V127.155H197.156V119.889C197.156 119.545 197.16 119.15 197.174 118.702C197.187 118.255 197.232 117.063 197.317 115.132H197.223L193.266 127.155H190.284L190.28 127.15Z" fill="#009245"/>
<path d="M212.877 127.15H204.045V111.8H212.877V114.465H207.295V117.833H212.488V120.499H207.295V124.458H212.877V127.146V127.15Z" fill="#009245"/>
<path d="M229.686 127.15H225.554L218.88 115.54H218.786C218.92 117.592 218.987 119.052 218.987 119.93V127.15H216.082V111.8H220.183L226.844 123.294H226.915C226.812 121.3 226.758 119.889 226.758 119.061V111.795H229.686V127.146V127.15Z" fill="#009245"/>
<path d="M239.463 127.15H236.208V114.51H232.045V111.8H243.63V114.51H239.467V127.15H239.463Z" fill="#009245"/>
<path d="M19.6068 71.5261H28.6761C34.1866 71.5261 38.8286 73.5686 37.1813 79.777C36.6173 81.9047 35.2743 83.6427 33.5823 84.9865C35.6235 86.4647 36.4875 88.9372 35.4892 92.8029C33.6225 99.8803 27.9419 101.918 21.563 101.918H11.1911C12.928 95.4054 13.7964 95.4054 19.4367 95.4054H23.2999C26.9885 95.4054 28.4612 94.8858 28.9849 92.8029C29.549 90.72 28.4657 89.7614 24.7771 89.7614H21.3481L20.435 93.2329H13.9262L19.6113 71.5261H19.6068ZM25.5963 83.2485C28.4164 83.2485 29.8937 82.7289 30.4577 80.646C30.977 78.5631 29.7638 78.039 26.9437 78.039H24.4279L23.0402 83.2485H25.6008H25.5963Z" fill="#009245"/>
<path d="M37.4365 94.9709L43.5961 71.5261H50.1048L43.8154 95.4054H51.6268L57.9162 71.5261H64.4249L58.2654 94.9709C56.4882 101.659 54.2724 101.918 50.3689 101.918H41.6936C37.7901 101.918 35.6638 101.659 37.441 94.9709H37.4365Z" fill="#009245"/>
<path d="M63.6415 86.72C66.5065 75.8218 72.7958 71.5261 79.1748 71.5261H86.9414L85.2045 78.039H77.4379C73.7493 78.039 71.7976 80.5161 70.1503 86.72C68.5029 92.9283 69.2371 95.4009 72.9257 95.4009H81.4712L79.7343 101.914H71.1888C64.8099 101.914 60.7766 97.6137 63.6371 86.72H63.6415Z" fill="#009245"/>
<path d="M90.7554 71.5261H97.2641L94.529 81.945H97.9579L99.001 81.9898L105.38 71.5261H112.278L104.901 83.5934C107.072 85.1119 107.981 87.7189 106.897 91.9294L104.252 101.914H97.7431L100.389 91.9294C101.038 89.4121 99.9544 88.458 96.2659 88.458H92.7966L89.2826 101.918H82.7739L90.7554 71.5261Z" fill="#009245"/>
<path d="M116.182 71.5261H122.69L116.401 95.4054H127.292L125.555 101.918H108.2L116.182 71.5261Z" fill="#009245"/>
<path d="M135.744 71.5261H153.099L151.362 78.039H140.56L135.963 95.4054H146.854L145.117 101.918H127.762L135.744 71.5261ZM148.152 82.1645H149.455L147.718 88.6774H139.907C141.644 82.1645 142.507 82.1645 148.152 82.1645Z" fill="#009245"/>
<path d="M160.95 101.914H154.442L157.911 88.673H156.828C152.924 88.673 150.798 88.4132 152.575 81.7255L155.265 71.5216H161.774L158.954 82.16H166.765L169.585 71.5216H176.094L173.404 81.7255C171.627 88.4132 169.411 88.673 165.507 88.673H164.424L160.955 101.914H160.95Z" fill="#009245"/>
<path d="M187.63 95.4009H191.927C195.616 95.4009 197.089 94.8813 197.612 92.7984C198.176 90.7155 197.093 89.757 193.145 89.757C187.679 89.757 183.122 87.6741 184.989 80.6415C186.856 73.5642 192.536 71.5261 198.047 71.5261H207.984C206.247 78.039 205.379 78.039 199.739 78.039H196.31C193.49 78.039 192.012 78.5586 191.493 80.646C190.929 82.7289 192.142 83.2485 194.962 83.2485C201.556 83.2485 205.983 85.7659 204.117 92.7984C202.25 99.8758 196.569 101.914 190.191 101.914H179.389C181.126 95.4009 181.994 95.4009 187.634 95.4009H187.63Z" fill="#009245"/>
<path d="M210.017 80.207H216.525L215.267 84.982H218.696C222.385 84.982 223.992 84.0279 224.641 81.5105C225.425 78.5586 224.207 78.039 220.518 78.039H216.655C211.015 78.039 210.146 78.039 211.883 71.5261H222.255C228.634 71.5261 233.276 73.5686 231.15 81.5105C229.198 89.0224 223.383 91.4949 217.004 91.4949H213.575L210.84 101.914H204.332L210.017 80.207Z" fill="#009245"/>
<path d="M231.754 86.72C234.659 75.6515 240.953 71.3066 247.373 71.3066C253.792 71.3066 257.785 75.6471 254.88 86.72C251.974 97.7929 245.68 102.133 239.306 102.133C232.932 102.133 228.849 97.7929 231.754 86.72ZM240.994 95.6204C244.682 95.6204 246.679 93.103 248.371 86.72C250.063 80.3369 249.369 77.8195 245.68 77.8195C241.992 77.8195 239.955 80.3369 238.263 86.72C236.571 93.103 237.265 95.6204 240.998 95.6204H240.994Z" fill="#009245"/>
<path d="M259.387 80.207H265.896L264.638 84.982H268.067C271.756 84.982 273.363 84.0279 274.012 81.5105C274.795 78.5586 273.578 78.039 269.889 78.039H266.026C260.386 78.039 259.517 78.039 261.254 71.5261H271.626C278.005 71.5261 282.647 73.5686 280.521 81.5105C279.478 85.5061 277.351 88.1086 274.576 89.6271L275.659 101.914C270.019 101.914 268.806 101.914 268.242 95.4009L267.893 91.4502C267.373 91.495 266.894 91.4949 266.375 91.4949H262.946L260.211 101.914H253.702L259.387 80.207Z" fill="#009245"/>
<path d="M289.326 78.0345H287.983C282.342 78.0345 281.474 78.0345 283.211 71.5216H305.338L303.601 78.0345H295.834L289.545 101.914H283.036L289.326 78.0345Z" fill="#009245"/>
<path d="M307.33 95.4009H311.627C315.316 95.4009 316.789 94.8813 317.312 92.7984C317.876 90.7155 316.793 89.757 312.845 89.757C307.379 89.757 302.822 87.6741 304.689 80.6415C306.556 73.5642 312.236 71.5261 317.747 71.5261H327.684C325.948 78.039 325.079 78.039 319.439 78.039H316.01C313.19 78.039 311.712 78.5586 311.193 80.646C310.629 82.7289 311.842 83.2485 314.662 83.2485C321.256 83.2485 325.683 85.7659 323.817 92.7984C321.95 99.8758 316.265 101.914 309.891 101.914H299.089C300.826 95.4009 301.69 95.4009 307.334 95.4009H307.33Z" fill="#009245"/>
</g>
<defs>
<clipPath id="clip0_247_361">
<rect width="341" height="128" fill="white"/>
</clipPath>
</defs>
</svg>
