<svg width="146" height="100" viewBox="0 0 146 100" fill="none" xmlns="http://www.w3.org/2000/svg">
<path d="M104.507 80.8642C96.9123 87.9624 86.7945 92.3029 75.6963 92.3029C64.598 92.3029 54.4803 87.9624 46.8851 80.8642L37.6963 80.8642C46.7516 91.9999 60.424 99.1042 75.6963 99.1042C90.9685 99.1042 104.641 91.9999 113.696 80.8642L104.507 80.8642Z" fill="#009245"/>
<path d="M43.8051 21.28C51.6431 12.3918 63.0364 6.78495 75.6959 6.78495C88.3555 6.78495 99.7518 12.3918 107.587 21.28L116.128 21.28C107.164 8.41642 92.3825 2.58787e-05 75.6959 2.44199e-05C59.0093 2.29611e-05 44.2251 8.41642 35.2639 21.28L43.8051 21.28Z" fill="#009245"/>
<path d="M14.1469 24.3199H29.3925C38.6558 24.3199 46.4592 27.7524 43.69 38.185C42.7418 41.7605 40.4844 44.681 37.6399 46.9392C41.0713 49.4231 42.5236 53.5781 40.8456 60.0741C37.7076 71.9671 28.1584 75.3919 17.4354 75.3919H0C2.91969 64.4474 4.37953 64.4474 13.861 64.4474H20.3551C26.5556 64.4474 29.0313 63.5743 29.9118 60.0741C30.8599 56.574 29.0389 54.9631 22.8383 54.9631H17.0742L15.5391 60.7967H4.59776L14.1545 24.3199H14.1469ZM24.2154 44.0186C28.9561 44.0186 31.4393 43.1455 32.3875 39.6453C33.2604 36.1452 31.2211 35.2645 26.4804 35.2645H22.2513L19.9186 44.0186H24.2229H24.2154Z" fill="#009245"/>
<path d="M55.0112 64.4458H62.1382C68.2555 64.4458 70.6979 63.5725 71.5665 60.0718C72.502 56.5712 70.7054 54.9601 64.1575 54.9601C55.0929 54.9601 47.5353 51.4595 50.6311 39.64C53.7269 27.7453 63.1478 24.3199 72.2867 24.3199H88.7678C85.8873 35.2661 84.447 35.2661 75.0929 35.2661H69.4062C64.7291 35.2661 62.2792 36.1394 61.418 39.6476C60.4826 43.1482 62.4945 44.0215 67.1716 44.0215C78.107 44.0215 85.4493 48.2524 82.3535 60.0718C79.2577 71.9666 69.8368 75.3919 59.2577 75.3919H41.3438C44.2242 64.4458 45.6645 64.4458 55.0186 64.4458H55.0112Z" fill="#009245"/>
<path d="M127.257 35.2645L116.696 75.3919H105.767L116.328 35.2645H107.217L96.6567 75.3919H85.7275L96.2883 35.2645H96.2132L99.1296 24.3199H130.023C143.643 24.3199 148.311 31.1772 143.425 49.8522L136.72 75.3844H125.791L132.496 49.8522C134.901 40.8045 135.63 35.3322 127.249 35.2645H127.257Z" fill="#009245"/>
</svg>
