<svg width="314" height="118" viewBox="0 0 314 118" fill="none" xmlns="http://www.w3.org/2000/svg">
<g clip-path="url(#clip0_117_962)">
<path d="M99.5923 42.8777C111.852 28.0443 130.363 18.5809 151.041 18.5809C171.718 18.5809 190.229 28.0443 202.489 42.8777H224.991C210.232 17.2713 182.613 0 151.041 0C119.468 0 91.8491 17.2713 77.0903 42.8777H99.5923Z" fill="white"/>
<path d="M199.92 39.9456C187.718 26.8088 170.32 18.5809 151.041 18.5809C130.363 18.5809 111.852 28.0443 99.5923 42.8777H77.0903C91.8491 17.2713 119.468 0 151.041 0C177.796 0 201.712 12.4037 217.371 31.7711" fill="#8CC63F"/>
<path d="M112.033 42.8776C122.316 33.4224 136.015 27.6406 151.041 27.6406C166.067 27.6406 179.765 33.4224 190.048 42.8776H202.489C190.229 28.0442 171.718 18.5808 151.041 18.5808C130.363 18.5808 111.852 28.0442 99.5923 42.8776H112.033Z" fill="white"/>
<path d="M184.837 6.99665C174.467 2.49557 163.042 0 151.041 0C119.468 0 91.8491 17.2713 77.0903 42.8777H99.5923C111.852 28.0443 130.363 18.5809 151.041 18.5809C158.344 18.5809 165.376 19.7669 171.96 21.9495" fill="#009245"/>
<path d="M179.769 49.4377H2.9797L0.41098 56.8791H173.267C175.376 54.3548 177.542 51.8715 179.769 49.4377Z" fill="#009245"/>
<path d="M173.193 49.4377H2.97971L0 56.8791H166.691C168.8 54.3548 170.966 51.8715 173.193 49.4377Z" fill="white"/>
<path d="M190.188 49.4377C187.964 51.8757 185.811 54.3589 183.715 56.8791H310.552L314 49.4377H190.188Z" fill="white"/>
<path d="M87.5049 116.896L84.1142 105.827H84.0279C84.1512 108.079 84.2128 109.582 84.2128 110.336V116.9H81.5455V102.788H85.6102L88.9434 113.577H89.0009L92.5355 102.788H96.6002V116.9H93.8178V110.221C93.8178 109.904 93.8219 109.541 93.8342 109.129C93.8465 108.718 93.8876 107.622 93.9657 105.847H93.8794L90.2462 116.9H87.509L87.5049 116.896Z" fill="white"/>
<path d="M108.766 116.896L107.746 113.536H102.613L101.594 116.896H98.3757L103.345 102.726H106.994L111.984 116.896H108.766ZM107.031 111.028C106.086 107.985 105.556 106.263 105.437 105.864C105.317 105.464 105.231 105.151 105.182 104.917C104.968 105.74 104.364 107.779 103.361 111.028H107.031Z" fill="white"/>
<path d="M126.249 116.896H122.456L116.328 106.222H116.242C116.365 108.108 116.427 109.451 116.427 110.258V116.896H113.759V102.784H117.524L123.64 113.351H123.705C123.611 111.518 123.561 110.221 123.561 109.459V102.78H126.249V116.892V116.896Z" fill="white"/>
<path d="M138.415 116.896L137.396 113.536H132.262L131.243 116.896H128.025L132.994 102.726H136.643L141.633 116.896H138.415ZM136.68 111.028C135.735 107.985 135.205 106.263 135.086 105.864C134.967 105.464 134.88 105.151 134.831 104.917C134.617 105.74 134.013 107.779 133.01 111.028H136.68Z" fill="white"/>
<path d="M148.751 108.973H154.337V116.291C153.433 116.587 152.578 116.793 151.78 116.913C150.983 117.032 150.165 117.09 149.331 117.09C147.206 117.09 145.583 116.464 144.461 115.212C143.339 113.96 142.78 112.165 142.78 109.821C142.78 107.478 143.429 105.769 144.732 104.493C146.035 103.216 147.835 102.582 150.14 102.582C151.587 102.582 152.98 102.87 154.32 103.451L153.33 105.843C152.302 105.329 151.234 105.069 150.124 105.069C148.834 105.069 147.798 105.502 147.021 106.37C146.244 107.239 145.854 108.409 145.854 109.875C145.854 111.341 146.166 112.576 146.795 113.384C147.424 114.191 148.332 114.594 149.524 114.594C150.149 114.594 150.778 114.528 151.423 114.401V111.456H148.755V108.965L148.751 108.973Z" fill="white"/>
<path d="M165.799 116.896H157.69V102.783H165.799V105.234H160.674V108.331H165.442V110.781H160.674V114.421H165.799V116.892V116.896Z" fill="white"/>
<path d="M174.702 116.896L171.311 105.827H171.225C171.348 108.079 171.409 109.582 171.409 110.336V116.9H168.742V102.788H172.807L176.14 113.577H176.198L179.732 102.788H183.797V116.9H181.014V110.221C181.014 109.904 181.019 109.541 181.031 109.129C181.043 108.718 181.084 107.622 181.162 105.847H181.076L177.443 116.9H174.706L174.702 116.896Z" fill="white"/>
<path d="M195.449 116.896H187.34V102.783H195.449V105.234H190.323V108.331H195.091V110.781H190.323V114.421H195.449V116.892V116.896Z" fill="white"/>
<path d="M210.881 116.896H207.088L200.96 106.222H200.874C200.997 108.108 201.059 109.451 201.059 110.258V116.896H198.391V102.784H202.156L208.272 113.351H208.337C208.243 111.518 208.193 110.221 208.193 109.459V102.78H210.881V116.892V116.896Z" fill="white"/>
<path d="M219.858 116.896H216.87V105.275H213.047V102.783H223.684V105.275H219.862V116.896H219.858Z" fill="white"/>
<path d="M18.0016 65.7578H26.3283C31.3877 65.7578 35.6497 67.6357 34.1372 73.3434C33.6194 75.2995 32.3864 76.8973 30.8328 78.1327C32.707 79.4917 33.5002 81.7649 32.5837 85.3188C30.8698 91.8254 25.6543 93.6991 19.7976 93.6991H10.2749C11.8695 87.7114 12.6669 87.7114 17.8454 87.7114H21.3923C24.7789 87.7114 26.131 87.2337 26.6119 85.3188C27.1298 83.4039 26.1352 82.5226 22.7486 82.5226H19.6003L18.7619 85.7141H12.7861L18.0057 65.7578H18.0016ZM23.5007 76.5349C26.09 76.5349 27.4462 76.0572 27.9641 74.1423C28.4408 72.2273 27.327 71.7455 24.7378 71.7455H22.428L21.1539 76.5349H23.5048H23.5007Z" fill="white"/>
<path d="M34.3715 87.312L40.0268 65.7578H46.0027L40.2282 87.7114H47.4L53.1745 65.7578H59.1504L53.4951 87.312C51.8634 93.4603 49.829 93.6991 46.2451 93.6991H38.2801C34.6962 93.6991 32.744 93.4603 34.3756 87.312H34.3715Z" fill="white"/>
<path d="M58.4311 79.7264C61.0615 69.7071 66.836 65.7578 72.6926 65.7578H79.8234L78.2287 71.7455H71.098C67.7114 71.7455 65.9194 74.0228 64.407 79.7264C62.8945 85.4341 63.5686 87.7073 66.9552 87.7073H74.801L73.2064 93.695H65.3605C59.5038 93.695 55.8008 89.7416 58.427 79.7264H58.4311Z" fill="white"/>
<path d="M83.3251 65.7578H89.3009L86.7898 75.3365H89.938L90.8956 75.3777L96.7523 65.7578H103.086L96.3125 76.852C98.3058 78.248 99.1402 80.6447 98.1455 84.5158L95.7166 93.695H89.7407L92.1697 84.5158C92.7656 82.2014 91.771 81.3242 88.3844 81.3242H85.1992L81.9729 93.6991H75.997L83.3251 65.7578Z" fill="white"/>
<path d="M106.67 65.7578H112.645L106.871 87.7114H116.87L115.276 93.6991H99.3416L106.67 65.7578Z" fill="white"/>
<path d="M124.63 65.7578H140.564L138.97 71.7455H129.052L124.831 87.7114H134.831L133.236 93.6991H117.302L124.63 65.7578ZM136.023 75.5383H137.219L135.624 81.526H128.452C130.047 75.5383 130.84 75.5383 136.023 75.5383Z" fill="white"/>
<path d="M147.773 93.6952H141.797L144.983 81.5221H143.988C140.404 81.5221 138.452 81.2833 140.083 75.1349L142.554 65.7539H148.529L145.94 75.5344H153.112L155.701 65.7539H161.677L159.207 75.1349C157.575 81.2833 155.541 81.5221 151.957 81.5221H150.962L147.777 93.6952H147.773Z" fill="white"/>
<path d="M172.268 87.7073H176.214C179.601 87.7073 180.953 87.2296 181.434 85.3147C181.952 83.3998 180.957 82.5185 177.332 82.5185C172.314 82.5185 168.13 80.6036 169.844 74.1381C171.557 67.6316 176.773 65.7578 181.832 65.7578H190.956C189.362 71.7455 188.564 71.7455 183.386 71.7455H180.238C177.648 71.7455 176.292 72.2232 175.815 74.1423C175.297 76.0572 176.411 76.5349 179.001 76.5349C185.055 76.5349 189.119 78.8493 187.405 85.3147C185.692 91.8213 180.476 93.695 174.619 93.695H164.702C166.297 87.7073 167.094 87.7073 172.273 87.7073H172.268Z" fill="white"/>
<path d="M192.822 73.7387H198.798L197.643 78.1286H200.791C204.178 78.1286 205.654 77.2514 206.249 74.9371C206.969 72.2232 205.851 71.7455 202.464 71.7455H198.917C193.739 71.7455 192.941 71.7455 194.536 65.7578H204.059C209.916 65.7578 214.178 67.6357 212.225 74.9371C210.433 81.8431 205.095 84.1163 199.238 84.1163H196.09L193.579 93.695H187.603L192.822 73.7387Z" fill="white"/>
<path d="M212.78 79.7265C215.448 69.5507 221.226 65.5562 227.12 65.5562C233.013 65.5562 236.68 69.5466 234.012 79.7265C231.345 89.9065 225.566 93.8969 219.714 93.8969C213.861 93.8969 210.113 89.9065 212.78 79.7265ZM221.263 87.9092C224.65 87.9092 226.483 85.5948 228.036 79.7265C229.59 73.8582 228.953 71.5439 225.566 71.5439C222.18 71.5439 220.31 73.8582 218.756 79.7265C217.203 85.5948 217.84 87.9092 221.267 87.9092H221.263Z" fill="white"/>
<path d="M238.151 73.7387H244.127L242.972 78.1286H246.12C249.507 78.1286 250.982 77.2514 251.578 74.9371C252.297 72.2232 251.179 71.7455 247.793 71.7455H244.246C239.067 71.7455 238.27 71.7455 239.865 65.7578H249.388C255.244 65.7578 259.506 67.6357 257.554 74.9371C256.596 78.6104 254.644 81.003 252.096 82.3991L253.091 93.695C247.912 93.695 246.798 93.695 246.28 87.7073L245.96 84.0751C245.483 84.1163 245.043 84.1163 244.567 84.1163H241.418L238.907 93.695H232.931L238.151 73.7387Z" fill="white"/>
<path d="M265.638 71.7416H264.405C259.227 71.7416 258.429 71.7416 260.024 65.7539H280.34L278.745 71.7416H271.614L265.84 93.6952H259.864L265.638 71.7416Z" fill="white"/>
<path d="M282.168 87.7073H286.114C289.501 87.7073 290.853 87.2296 291.334 85.3147C291.851 83.3998 290.857 82.5185 287.232 82.5185C282.214 82.5185 278.03 80.6036 279.744 74.1381C281.457 67.6316 286.673 65.7578 291.732 65.7578H300.856C299.262 71.7455 298.464 71.7455 293.286 71.7455H290.138C287.548 71.7455 286.192 72.2232 285.715 74.1423C285.197 76.0572 286.311 76.5349 288.901 76.5349C294.955 76.5349 299.019 78.8493 297.305 85.3147C295.592 91.8213 290.372 93.695 284.519 93.695H274.602C276.197 87.7073 276.99 87.7073 282.173 87.7073H282.168Z" fill="white"/>
</g>
<defs>
<clipPath id="clip0_117_962">
<rect width="314" height="118" fill="white"/>
</clipPath>
</defs>
</svg>
