<svg width="171" height="107" viewBox="0 0 171 107" fill="none" xmlns="http://www.w3.org/2000/svg">
<path d="M122.5 35L100 57.4998L122.5 79.9995L144.999 57.4998L122.5 35Z" fill="#245971"/>
<path d="M65.1248 82L53 94.1248L65.1248 106.25L77.2496 94.1248L65.1248 82Z" fill="#245971"/>
<path d="M57.1248 3L45 15.1248L57.1248 27.2496L69.2496 15.1248L57.1248 3Z" fill="#245971"/>
<path d="M87.4997 1.38517e-05L65 22.4998L87.4997 44.9995L109.999 22.4998L87.4997 1.38517e-05Z" fill="#DBEFF9"/>
<path d="M33.5547 52L22 63.5547L33.5547 75.1094L45.1094 63.5547L33.5547 52Z" fill="#DBEFF9"/>
<path d="M88.4264 15L46 57.4264L88.4264 99.8528L130.853 57.4264L88.4264 15Z" fill="#49B1E2"/>
<path d="M88.3225 44.7031L79.4937 53.5319L70.0222 44.0603L56.9902 56.6449L69.5937 69.1035L69.4046 51.6098L78.8257 61.0373L78.8446 61.0184L79.5063 61.68L88.6754 52.5047V88.3364L120.367 56.6449L88.6754 24.9534L88.3162 44.7031H88.3225ZM97.8822 56.5756V45.4026L108.772 56.5819L103.327 62.1653L97.8822 67.7486V56.5756Z" fill="white"/>
<path d="M142.25 23L130 35.2501L142.25 47.5002L154.5 35.2501L142.25 23Z" fill="#49B1E2"/>
<path d="M22.4375 83L17 88.4374L22.4375 93.8749L27.8749 88.4374L22.4375 83Z" fill="#DBEFF9"/>
<path d="M155.437 23L150 28.4374L155.437 33.8749L160.875 28.4374L155.437 23Z" fill="#DBEFF9"/>
<path d="M142.891 65L125 82.8906L142.891 100.781L160.781 82.8906L142.891 65Z" fill="#DBEFF9"/>
<path d="M46.4375 65L39.7187 71.7188L46.4375 78.4375L53.1562 71.7188L46.4375 65Z" fill="#245971"/>
<path d="M24.7187 36L16 44.7187L24.7187 53.4374L33.4374 44.7187L24.7187 36Z" fill="#49B1E2"/>
<path d="M12.2501 23L0 35.2501L12.2501 47.5002L24.5002 35.2501L12.2501 23Z" fill="#EDF7FC"/>
<path d="M162.781 58L155 65.7812L162.781 73.5625L170.563 65.7812L162.781 58Z" fill="#49B1E2"/>
</svg>
