<svg width="124" height="124" viewBox="0 0 124 124" fill="none" xmlns="http://www.w3.org/2000/svg">
<path d="M57.4232 64.7776H45.4099V72.3782H59.6002V78.2746H37.7717V46.4788H59.6447V52.3963H45.4123V59.1001H57.4255V64.7776H57.4232Z" fill="black"/>
<path d="M88.8578 46.4789V67.2893C88.8578 69.6479 88.3581 71.6887 87.3564 73.414C86.3547 75.1394 84.9191 76.4528 83.0471 77.3567C81.175 78.2606 78.9629 78.7102 76.4082 78.7102C72.5492 78.7102 69.509 77.7051 67.2898 75.6973C65.0706 73.6894 63.9375 70.9378 63.8953 67.4423V46.4789H71.578V67.5953C71.6648 71.0743 73.2764 72.8138 76.4105 72.8138C77.9917 72.8138 79.1881 72.376 80.0021 71.5027C80.8138 70.6294 81.222 69.21 81.222 67.2446V46.4766H88.8601L88.8578 46.4789Z" fill="black"/>
<path d="M9.68638 53.3523L11.854 59.8819L18.7133 59.9337L13.1935 64.0199L15.2649 70.5801L9.68638 66.5762L4.10787 70.5801L6.17929 64.0199L0.659424 59.9337L7.51878 59.8819L9.68638 53.3523Z" fill="black"/>
<path d="M17.4281 25.8123L19.5957 32.3418L26.455 32.3936L20.9352 36.4799L23.0066 43.0401L17.4281 39.0362L11.8496 43.0401L13.921 36.4799L8.40112 32.3936L15.2605 32.3418L17.4281 25.8123Z" fill="black"/>
<path d="M36.4298 7.4519L38.5974 13.9815L45.4567 14.0333L39.9369 18.1195L42.0083 24.6797L36.4298 20.6758L30.8513 24.6797L32.9227 18.1195L27.4028 14.0333L34.2622 13.9815L36.4298 7.4519Z" fill="black"/>
<path d="M61.9999 0.626221L64.1675 7.1558L71.0268 7.20758L65.5069 11.2939L67.5784 17.854L61.9999 13.8501L56.4213 17.854L58.4928 11.2939L52.9729 7.20758L59.8323 7.1558L61.9999 0.626221Z" fill="black"/>
<path d="M88.0389 5.80396L90.2065 12.3312L97.0659 12.383L91.546 16.4692L93.6174 23.0318L88.0389 19.0279L82.4604 23.0318L84.5318 16.4692L79.012 12.383L85.8713 12.3312L88.0389 5.80396Z" fill="black"/>
<path d="M109.152 25.8123L111.32 32.3418L118.179 32.3936L112.659 36.4799L114.73 43.0401L109.152 39.0362L103.573 43.0401L105.645 36.4799L100.125 32.3936L106.984 32.3418L109.152 25.8123Z" fill="black"/>
<path d="M114.313 53.3523L116.481 59.8819L123.34 59.9337L117.82 64.0199L119.892 70.5801L114.313 66.5762L108.735 70.5801L110.806 64.0199L105.286 59.9337L112.145 59.8819L114.313 53.3523Z" fill="black"/>
<path d="M107.745 78.3032L109.912 84.8328L116.772 84.8846L111.252 88.9709L113.323 95.531L107.745 91.5271L102.166 95.531L104.238 88.9709L98.7178 84.8846L105.577 84.8328L107.745 78.3032Z" fill="black"/>
<path d="M88.0389 98.0754L90.2065 104.605L97.0659 104.657L91.546 108.743L93.6174 115.303L88.0389 111.299L82.4604 115.303L84.5318 108.743L79.012 104.657L85.8713 104.605L88.0389 98.0754Z" fill="black"/>
<path d="M61.9999 106.079L64.1675 112.608L71.0268 112.66L65.5069 116.746L67.5784 123.306L61.9999 119.303L56.4213 123.306L58.4928 116.746L52.9729 112.66L59.8323 112.608L61.9999 106.079Z" fill="black"/>
<path d="M35.4818 95.5303L37.6494 102.06L44.5087 102.112L38.9889 106.198L41.0603 112.76L35.4818 108.757L29.9033 112.76L31.9723 106.198L26.4548 102.112L33.3142 102.06L35.4818 95.5303Z" fill="black"/>
<path d="M18.7135 78.3032L20.8811 84.8328L27.7404 84.8846L22.2206 88.9709L24.292 95.531L18.7135 91.5271L13.135 95.531L15.204 88.9709L9.68652 84.8846L16.5459 84.8328L18.7135 78.3032Z" fill="black"/>
</svg>
